<?xml version="1.0" encoding="utf-8"?>
<!-- Generator: Adobe Illustrator 27.5.0, SVG Export Plug-In . SVG Version: 6.00 Build 0)  -->
<svg version="1.1" xmlns="http://www.w3.org/2000/svg" xmlns:xlink="http://www.w3.org/1999/xlink" x="0px" y="0px"
	 viewBox="0 0 3710 3710" style="enable-background:new 0 0 3710 3710;" xml:space="preserve">
<g id="Background">
	<g>
		<g>
			<rect style="fill:#FFFFFF;" width="3710" height="3710"/>
		</g>
	</g>
</g>
<g id="Illustration">
	<g>
		<path style="fill:#F4F7FA;" d="M1929.58,535.649C1183.633,514.626,537.485,1031.22,439.863,1709.057
			C333.128,2450.179,920.586,3117.01,1643.428,3223.813c899.094,132.846,1771.164-635.679,1692.861-1469.414
			C3277.295,1126.253,2687.851,557.02,1929.58,535.649z"/>
		<g>
			<g>
				<g>
					<defs>
						<path id="SVGID_1_" d="M2463.979,2882.795c-23.232-90.497-43.909-227.678,0.618-375.535
							c51.129-169.781,141.503-198.469,232.746-377.541c130.247-255.62,15.007-454.593,137.198-527.292
							c59.588-35.453,149.229-29.579,201.902,13.426c150.278,122.694,74.824,609.025-187.922,783.433
							c-118.832,78.88-216.888,62.134-309.154,168.259C2457.84,2661.319,2455.143,2791.939,2463.979,2882.795z"/>
					</defs>
					
						<linearGradient id="SVGID_00000019667689577363106880000010373399396111292573_" gradientUnits="userSpaceOnUse" x1="3016.1526" y1="1748.2489" x2="2588.9648" y2="2436.1458">
						<stop  offset="0" style="stop-color:#FF9085"/>
						<stop  offset="1" style="stop-color:#FB6FBB"/>
					</linearGradient>
					
						<use xlink:href="#SVGID_1_"  style="overflow:visible;fill:url(#SVGID_00000019667689577363106880000010373399396111292573_);"/>
					<clipPath id="SVGID_00000181782460812342431530000000830583402934018200_">
						<use xlink:href="#SVGID_1_"  style="overflow:visible;"/>
					</clipPath>
					<g style="opacity:0.5;clip-path:url(#SVGID_00000181782460812342431530000000830583402934018200_);">
						<path style="fill:#FFFFFF;" d="M2461.267,2658.857l-3.456-1.125c11.986-36.794,27.214-72.735,45.267-106.825
							c41.511-78.391,84.292-120.108,138.457-172.924c35.16-34.285,75.012-73.145,121.79-129.502
							c87.494-105.408,114.932-142.625,141.271-203.628c52.162-120.81,52.712-232.171,48.396-287.799
							c-6.122-78.911-27.45-155.029-63.39-226.235l3.243-1.638c36.155,71.633,57.611,148.206,63.77,227.593
							c4.341,55.962,3.789,167.993-48.683,289.52c-26.52,61.422-54.055,98.784-141.81,204.508
							c-46.901,56.504-86.825,95.435-122.049,129.782c-53.937,52.594-96.54,94.135-137.783,172.022
							C2488.334,2586.514,2473.187,2622.262,2461.267,2658.857z"/>
						<path style="fill:#FFFFFF;" d="M2934.525,1960.342l0.144-2.987c8.391-174.376-196.946-247.927-199.021-248.65l1.196-3.431
							c0.523,0.183,53.074,18.729,103.856,58.843c46.462,36.701,100.833,99.391,97.725,190.343
							c10.745-5.472,51.719-27.942,90.157-70.326c40.997-45.206,87.43-123.004,75.814-236.909l3.615-0.369
							c11.757,115.303-35.295,194.061-76.836,239.826c-44.988,49.562-93.448,72.188-93.932,72.411L2934.525,1960.342z"/>
						<path style="fill:#FFFFFF;" d="M2920.895,2252.437c-74.49,0-131.741-30.246-132.638-30.732l-1.343-0.726l0.484-1.448
							c56.125-168.08-51.958-263.289-53.056-264.232l2.366-2.757c1.113,0.954,110.378,97.216,54.626,266.659
							c14.744,7.397,146.708,69.438,266.59-11.805l2.037,3.007C3012.895,2242.302,2964.004,2252.437,2920.895,2252.437z"/>
						<path style="fill:#FFFFFF;" d="M2805.096,2416.934c-36.833,0-65.851-6.371-86.983-13.648
							c-42.302-14.566-62.5-35.238-63.339-36.111l-0.903-0.938l0.598-1.156c45.584-88.118,0.064-240.399-0.403-241.926l3.477-1.059
							c0.467,1.535,46.013,153.847,0.77,243.448c9.45,8.832,91.339,79.043,255.262,31.111l1.018,3.488
							C2872.605,2412.422,2836.083,2416.934,2805.096,2416.934z"/>
					</g>
				</g>
			</g>
			<g>
				<g>
					<defs>
						<path id="SVGID_00000116938281098899355370000009773277621950216126_" d="M2272.559,3024.196
							c-20.49-71.601-40.58-184.798,7.072-293.601c83.133-189.817,278.874-152.619,437.733-364.034
							c128.126-170.514,68.378-284.657,218.216-405.442c25.08-20.217,157.168-130.79,270.006-86.39
							c63.585,25.019,92.852,88.067,98.346,99.903c83.036,178.882-72.808,491.93-304.361,653.601
							c-133.037,92.887-181.692,73.161-421.046,191.209C2437.879,2888.808,2335.526,2969.041,2272.559,3024.196z"/>
					</defs>
					
						<linearGradient id="SVGID_00000132774651812447152940000014314670656885931959_" gradientUnits="userSpaceOnUse" x1="2956.824" y1="1981.6742" x2="2598.6821" y2="3050.231">
						<stop  offset="0" style="stop-color:#AA80F9"/>
						<stop  offset="0.9964" style="stop-color:#6165D7"/>
					</linearGradient>
					
						<use xlink:href="#SVGID_00000116938281098899355370000009773277621950216126_"  style="overflow:visible;fill:url(#SVGID_00000132774651812447152940000014314670656885931959_);"/>
					<clipPath id="SVGID_00000160902397113929665990000008283322869052017598_">
						<use xlink:href="#SVGID_00000116938281098899355370000009773277621950216126_"  style="overflow:visible;"/>
					</clipPath>
					<g style="opacity:0.7;clip-path:url(#SVGID_00000160902397113929665990000008283322869052017598_);">
						<path style="fill:#FFFFFF;" d="M2261.831,3114.494l-3.619-0.328c16.204-178.803,71.638-304.085,164.759-372.368
							c45.609-33.444,83.95-42.323,124.542-51.722c43.551-10.086,88.587-20.515,144.597-63.873
							c54.421-42.128,71.473-78.63,93.061-124.843c19.454-41.643,43.665-93.469,103.106-165.643
							c52.097-63.258,91.725-94.621,126.688-122.291c37.817-29.927,67.687-53.566,99.29-106.653
							c51.641-86.743,71.641-192.645,59.447-314.764l3.615-0.361c12.273,122.91-7.893,229.558-59.94,316.984
							c-31.947,53.661-62.047,77.483-100.157,107.643c-34.821,27.558-74.288,58.793-126.14,121.752
							c-59.147,71.818-83.249,123.414-102.616,164.87c-21.796,46.658-39.013,83.511-94.129,126.178
							c-56.64,43.845-102.07,54.365-146.002,64.539c-40.218,9.314-78.205,18.111-123.211,51.113
							C2332.874,2812.367,2277.936,2936.774,2261.831,3114.494z"/>
						<path style="fill:#FFFFFF;" d="M2998.628,2228.959l0.491-2.382c0.52-2.524,50.841-253.469-49.714-343.094l2.416-2.713
							c96.787,86.265,56.26,318.033,51.32,344.154c132.685-11.865,225.288-73.316,279.712-122.942
							c59.317-54.089,87.276-106.092,87.553-106.611l3.208,1.703c-0.277,0.525-28.534,53.083-88.312,107.592
							c-55.167,50.305-149.265,112.667-284.25,124.088L2998.628,2228.959z"/>
						<path style="fill:#FFFFFF;" d="M2981.232,2436.371c-87.753,0-148.617-18.836-149.249-19.035l-1.489-0.469l0.24-1.542
							c20.288-130.176-31.179-306.205-31.702-307.968l3.484-1.032c0.521,1.763,51.815,177.161,32.048,307.99
							c10.281,2.988,72.75,19.96,158.272,18.312c86.093-1.645,213.947-22.982,334.137-115.291l2.214,2.881
							c-121.022,92.948-249.745,114.408-336.418,116.046C2988.876,2436.336,2985.027,2436.371,2981.232,2436.371z"/>
						<path style="fill:#FFFFFF;" d="M2877.459,2745.313c-76.55,0-138.752-10.763-182.466-21.828
							c-69.355-17.554-108.494-39.667-108.88-39.888l-1.662-0.95l1.036-1.61c82.25-127.912,22.653-316.756,22.043-318.648
							l3.456-1.118c0.615,1.901,60.208,190.776-21.392,320.081c17.428,9.238,168.583,84.516,402.477,52.404l0.493,3.6
							C2951.403,2743.006,2912.888,2745.313,2877.459,2745.313z"/>
					</g>
				</g>
			</g>
			<g>
				
					<linearGradient id="SVGID_00000038375289253897075010000015040774224421080469_" gradientUnits="userSpaceOnUse" x1="1606.2286" y1="2238.6152" x2="1568.2694" y2="2566.0125" gradientTransform="matrix(0.9026 0.4303 -0.4303 0.9026 2906.355 -967.2236)">
					<stop  offset="0" style="stop-color:#AA80F9"/>
					<stop  offset="0.9964" style="stop-color:#6165D7"/>
				</linearGradient>
				<path style="fill:url(#SVGID_00000038375289253897075010000015040774224421080469_);" d="M2287.404,2809.299
					c43.932-24.544,115.207-59.19,208.209-80.673c165.42-38.211,234.482,3.358,309.459-56.171
					c77.611-61.619,40.309-135.297,132.588-203.468c7.759-5.731,106.596-76.772,184.162-37.261
					c54.263,27.641,68.982,94.546,75.889,125.937c26.803,121.836-16.96,297.821-152.105,371.66
					c-128.127,70.006-273.725,13.049-319.912-5.373c-81.028-32.318-97.126-67.175-179.79-97.494
					C2445.377,2789.585,2350.329,2797.545,2287.404,2809.299z"/>
			</g>
		</g>
		<g>
			
				<linearGradient id="SVGID_00000151522137674643667720000015169646566869804207_" gradientUnits="userSpaceOnUse" x1="1173.1237" y1="1698.3884" x2="2476.8198" y2="2453.1604">
				<stop  offset="0" style="stop-color:#444B8C"/>
				<stop  offset="0.9964" style="stop-color:#26264F"/>
			</linearGradient>
			<path style="fill:url(#SVGID_00000151522137674643667720000015169646566869804207_);" d="M2696.75,1996.618
				c1.323,598.981-317.059,1087.796-884.068,1103.874c-8.765,0.249-153.469-0.024-162.287-0.003
				c-579.229,1.41-1049.875-490.522-1051.219-1098.763c-1.343-608.241,467.125-1102.46,1046.354-1103.871
				c13.545-0.033,140.689,1.223,154.11,1.725C2360.174,920.534,2695.438,1402.601,2696.75,1996.618z"/>
			
				<linearGradient id="SVGID_00000101809577387900196790000002055500775170279331_" gradientUnits="userSpaceOnUse" x1="2277.3782" y1="1357.993" x2="179.629" y2="4509.5444">
				<stop  offset="0" style="stop-color:#FFC444"/>
				<stop  offset="0.9964" style="stop-color:#F36F56"/>
			</linearGradient>
			
				<ellipse style="fill:url(#SVGID_00000101809577387900196790000002055500775170279331_);" cx="1844.039" cy="2009.02" rx="1048.789" ry="1101.32"/>
			
				<linearGradient id="SVGID_00000045589415406494121190000001524690704945726398_" gradientUnits="userSpaceOnUse" x1="2378.0913" y1="1262.1796" x2="1747.8765" y2="2143.4973">
				<stop  offset="0" style="stop-color:#FFC444"/>
				<stop  offset="0.9964" style="stop-color:#F36F56"/>
			</linearGradient>
			
				<ellipse style="opacity:0.3;fill:url(#SVGID_00000045589415406494121190000001524690704945726398_);" cx="1844.039" cy="2009.02" rx="1022.366" ry="1073.573"/>
			
				<linearGradient id="SVGID_00000044882805909507871530000015136308220215165629_" gradientUnits="userSpaceOnUse" x1="1188.1962" y1="254.385" x2="2137.9297" y2="2795.2925">
				<stop  offset="0" style="stop-color:#FFC444"/>
				<stop  offset="0.9964" style="stop-color:#F36F56"/>
			</linearGradient>
			
				<ellipse style="fill:url(#SVGID_00000044882805909507871530000015136308220215165629_);" cx="1844.039" cy="2009.02" rx="991.502" ry="1041.164"/>
			
				<linearGradient id="SVGID_00000021092754053731947820000014495979499159458442_" gradientUnits="userSpaceOnUse" x1="616.0406" y1="5261.6392" x2="2507.2539" y2="164.3691">
				<stop  offset="0.0036" style="stop-color:#EBEFF2"/>
				<stop  offset="1" style="stop-color:#FFFFFF"/>
			</linearGradient>
			
				<ellipse style="fill:url(#SVGID_00000021092754053731947820000014495979499159458442_);" cx="1822.843" cy="2009.02" rx="970.306" ry="1018.906"/>
			<g>
				
					<linearGradient id="SVGID_00000085215199662983341260000001498872867953190060_" gradientUnits="userSpaceOnUse" x1="2523.0554" y1="1250.033" x2="1398.0698" y2="3512.7903">
					<stop  offset="0" style="stop-color:#FFC444"/>
					<stop  offset="0.9964" style="stop-color:#F36F56"/>
				</linearGradient>
				<path style="fill:url(#SVGID_00000085215199662983341260000001498872867953190060_);" d="M1925.289,1979.841l739.123,286.615
					c24.064-80.974,37.039-167.086,37.039-256.383c0-459.796-343.787-835.271-776.162-858.455V1979.841z"/>
			</g>
			<g style="opacity:0.54;">
				<path style="fill:#D8DEE8;" d="M1579.215,1985.902c-76.735-248.515,200.696-427.858,156.954-717.522
					c-19.302-127.818-94.412-232.545-186.779-316.563c-436.685,133.975-755.245,558.052-754.137,1059.757
					c1.343,608.241,471.99,1100.173,1051.219,1098.763c142.023-0.346,277.356-30.382,400.768-84.399
					c-17.883-351.513-125.708-550.074-240.372-669.701C1830.142,2171.864,1637.727,2175.401,1579.215,1985.902z"/>
			</g>
			
				<linearGradient id="SVGID_00000165194322112720562220000010288120971738797987_" gradientUnits="userSpaceOnUse" x1="1286.8669" y1="1030.8884" x2="2495.1677" y2="3283.3967">
				<stop  offset="0" style="stop-color:#FF9085"/>
				<stop  offset="1" style="stop-color:#FB6FBB"/>
			</linearGradient>
			
				<ellipse style="fill:url(#SVGID_00000165194322112720562220000010288120971738797987_);" cx="1820.116" cy="2024.969" rx="61.693" ry="64.784"/>
			
				<linearGradient id="SVGID_00000074428119979299160580000012146168655149794478_" gradientUnits="userSpaceOnUse" x1="1393.9116" y1="973.4659" x2="2602.2134" y2="3225.9763">
				<stop  offset="0" style="stop-color:#FF9085"/>
				<stop  offset="1" style="stop-color:#FB6FBB"/>
			</linearGradient>
			<path style="fill:url(#SVGID_00000074428119979299160580000012146168655149794478_);" d="M1820.116,1508.706
				c-21.532,0-38.988,18.329-38.988,40.94v436.696c0,22.611,17.455,40.94,38.988,40.94c21.532,0,38.987-18.329,38.987-40.94
				v-436.696C1859.103,1527.035,1841.648,1508.706,1820.116,1508.706z"/>
			
				<linearGradient id="SVGID_00000005244157489730524620000013660215527972353192_" gradientUnits="userSpaceOnUse" x1="135.3871" y1="-555.3602" x2="2895.459" y2="4589.9526">
				<stop  offset="0" style="stop-color:#FF9085"/>
				<stop  offset="1" style="stop-color:#FB6FBB"/>
			</linearGradient>
			<path style="fill:url(#SVGID_00000005244157489730524620000013660215527972353192_);" d="M1830.189,2018.854l-698.516-205.36
				c-12.312-3.759-25.841,3.068-30.215,15.248c-4.375,12.18,2.06,25.101,14.371,28.86l698.516,205.36
				c12.312,3.759,25.839-3.068,30.216-15.248C1848.935,2035.534,1842.501,2022.613,1830.189,2018.854z"/>
		</g>
		<g>
			
				<linearGradient id="SVGID_00000149343911078845153990000004953035507991276696_" gradientUnits="userSpaceOnUse" x1="2296.3999" y1="1354.6313" x2="3326.2542" y2="1354.6313">
				<stop  offset="0" style="stop-color:#AA80F9"/>
				<stop  offset="0.9964" style="stop-color:#6165D7"/>
			</linearGradient>
			<path style="fill:url(#SVGID_00000149343911078845153990000004953035507991276696_);" d="M3201.532,1066.101l-777.896,44.793
				c-42.036,2.419-74.727,47.779-74.727,101.373v237.399l-52.51,108.459l51.281,7.715l73.039,6.609l780.916,70.427
				c67.637,6.103,124.619-46.172,124.619-116.954v-338.805C3326.254,1116.334,3269.17,1062.209,3201.532,1066.101z"/>
			<g>
				
					<linearGradient id="SVGID_00000005242217938650828550000004077528600604129930_" gradientUnits="userSpaceOnUse" x1="2665.1516" y1="827.2921" x2="2069.3127" y2="2474.9138" gradientTransform="matrix(1 0 0 1 340.4032 0)">
					<stop  offset="0" style="stop-color:#AA80F9"/>
					<stop  offset="0.9964" style="stop-color:#6165D7"/>
				</linearGradient>
				<path style="fill:url(#SVGID_00000005242217938650828550000004077528600604129930_);" d="M3174.377,1066.101l-778.46,44.793
					c-42.035,2.419-75.29,47.779-75.29,101.373v237.399l-51.691,108.459l51.691,7.715l73.243,6.609l780.507,70.428
					c67.636,6.103,124.21-46.172,124.21-116.955v-338.805C3298.587,1116.334,3242.013,1062.209,3174.377,1066.101z"/>
				<g style="opacity:0.54;">
					<polygon style="fill:#FFFFFF;" points="2394.175,1267.891 3157.129,1262.322 3157.129,1214.47 2394.175,1229.435 					"/>
					<polygon style="fill:#FFFFFF;" points="2394.175,1342.773 3157.129,1355.498 3157.129,1307.646 2394.175,1304.316 					"/>
					<polygon style="fill:#FFFFFF;" points="2651.371,1428.111 3157.129,1448.673 3157.129,1400.821 2651.371,1386.487 					"/>
				</g>
			</g>
		</g>
		<g>
			<g>
				<g>
					
						<linearGradient id="SVGID_00000176016037333528756170000002948198718298930328_" gradientUnits="userSpaceOnUse" x1="890.8216" y1="2034.1962" x2="2033.8018" y2="4475.8506" gradientTransform="matrix(1 0 0 1 -73.8975 0)">
						<stop  offset="0" style="stop-color:#FF9085"/>
						<stop  offset="1" style="stop-color:#FB6FBB"/>
					</linearGradient>
					<path style="fill:url(#SVGID_00000176016037333528756170000002948198718298930328_);" d="M994.242,1935.199
						c0,0-192.574-333.45-453.007,233.613c-202.793,441.56-71.724,932.8,397.433,1067.594
						c469.157,134.793,1201.92-137.437,971.917-329.29C1422.694,2500.153,1052.403,2139.431,994.242,1935.199z"/>
					<g style="opacity:0.35;">
						
							<linearGradient id="SVGID_00000140014343107323616630000018029872581967134634_" gradientUnits="userSpaceOnUse" x1="1022.0371" y1="1972.7719" x2="2165.0144" y2="4414.4199" gradientTransform="matrix(1 0 0 1 -73.8975 0)">
							<stop  offset="0" style="stop-color:#FF9085"/>
							<stop  offset="1" style="stop-color:#FB6FBB"/>
						</linearGradient>
						<path style="fill:url(#SVGID_00000140014343107323616630000018029872581967134634_);" d="M752.598,2234.854
							c-13.709,40.385-16.813,155.442-11.028,287.76c5.16,118.035-5.555,179.745,182.235,265.597
							c64.367,29.427,108.883,122.806,207.437,178.357c44.682,25.184,213.004,116.305,430.383,79.485
							c143.832-24.362,250.923-94.909,323.04-160.646c-475.001-398.045-833.299-749.62-890.421-950.207
							c0,0-70.364-121.74-183.52-92.921C838.174,1872.883,847.495,1955.295,752.598,2234.854z"/>
					</g>
					<g style="opacity:0.13;">
						
							<linearGradient id="SVGID_00000051381525984622485290000017762903566288444079_" gradientUnits="userSpaceOnUse" x1="890.821" y1="2034.1967" x2="2033.8037" y2="4475.856" gradientTransform="matrix(1 0 0 1 -73.8975 0)">
							<stop  offset="0" style="stop-color:#FF9085"/>
							<stop  offset="1" style="stop-color:#FB6FBB"/>
						</linearGradient>
						<path style="fill:url(#SVGID_00000051381525984622485290000017762903566288444079_);" d="M1689.577,3102.274
							c-221.879,122.518-592.441,197.298-868.521-7.755c-255.625-189.86-278.4-507.826-286.922-604.863
							c-14.893-169.588,18.239-317.259,66.011-436.372c-19.198,33.555-38.85,71.851-58.909,115.528
							c-202.794,441.56-71.724,932.8,397.433,1067.593c461.798,132.678,1178.994-128.996,982.032-320.203
							C1864.722,2979.344,1789.195,3047.267,1689.577,3102.274z"/>
					</g>
				</g>
				
					<linearGradient id="SVGID_00000034769206275127454930000011046212891099558028_" gradientUnits="userSpaceOnUse" x1="620.2687" y1="2525.0659" x2="1655.6943" y2="2525.0659">
					<stop  offset="0" style="stop-color:#FF9085"/>
					<stop  offset="1" style="stop-color:#FB6FBB"/>
				</linearGradient>
				<path style="opacity:0.3;fill:url(#SVGID_00000034769206275127454930000011046212891099558028_);" d="M1340.033,3138.66
					c-6.574,0-13.172-0.074-19.851-0.222c-171.358-3.826-411.938-60.745-584.92-310.159
					c-146.102-210.659-126.548-448.403-84.418-610.749c45.595-175.7,126.763-303.386,127.578-304.655
					c0.913-1.421,2.799-1.826,4.213-0.92c1.418,0.91,1.829,2.796,0.92,4.213c-0.808,1.263-81.521,128.266-126.851,303.062
					c-41.769,161.066-61.175,396.867,83.57,605.573c171.52,247.306,410.103,303.743,580.043,307.535
					c184.402,4.105,329.784-50.984,331.231-51.54c1.563-0.609,3.334,0.179,3.941,1.752c0.607,1.573-0.178,3.338-1.752,3.94
					C1652.333,3087.032,1516.015,3138.653,1340.033,3138.66z"/>
			</g>
			<g>
				<g>
					<g>
						
							<linearGradient id="SVGID_00000098201508054033536800000005540122130288618411_" gradientUnits="userSpaceOnUse" x1="-1059.4451" y1="2912.5928" x2="-822.0539" y2="2912.5928" gradientTransform="matrix(0.6567 -0.7542 0.7542 0.6567 750.7986 388.1635)">
							<stop  offset="0" style="stop-color:#40447E"/>
							<stop  offset="0.9964" style="stop-color:#3C3B6B"/>
						</linearGradient>
						<path style="fill:url(#SVGID_00000098201508054033536800000005540122130288618411_);" d="M2260.238,3107.121
							c-12.23-13.165-34.141-69.832,5.823-81.475c40.186-11.708,62.521-26.534,117.856-70.892
							c55.336-44.359,69.548-6.268-8.609,65.775C2297.152,3092.572,2277.627,3125.84,2260.238,3107.121z"/>
						
							<linearGradient id="SVGID_00000059284647725227460530000016603973207669261976_" gradientUnits="userSpaceOnUse" x1="1928.6017" y1="2146.0725" x2="3839.0334" y2="4128.5952" gradientTransform="matrix(0.9952 0.098 -0.098 0.9952 -118.3824 -114.5396)">
							<stop  offset="0" style="stop-color:#FFC444"/>
							<stop  offset="0.9964" style="stop-color:#F36F56"/>
						</linearGradient>
						<path style="fill:url(#SVGID_00000059284647725227460530000016603973207669261976_);" d="M2207.877,3024.369l32.917,28.741
							c6.876,6.004,16.88,6.775,24.595,1.897c3.595-2.273,5.898-6.119,6.204-10.362c0.306-4.243-1.421-8.379-4.653-11.145
							l-48.115-41.17L2207.877,3024.369z"/>
					</g>
					<g>
						
							<linearGradient id="SVGID_00000022524867875325477610000012136941711627257776_" gradientUnits="userSpaceOnUse" x1="1039.2258" y1="2635.6018" x2="2213.0066" y2="3259.0527" gradientTransform="matrix(0.9981 -0.0611 0.0611 0.9981 -36.4323 49.9065)">
							<stop  offset="0" style="stop-color:#311944"/>
							<stop  offset="1" style="stop-color:#6B3976"/>
						</linearGradient>
						<path style="fill:url(#SVGID_00000022524867875325477610000012136941711627257776_);" d="M1221.973,2747.615
							c-58.162,50.95,63.243,218.038,257.184,163.881c235.022-65.629,533.918-36.136,735.404,127.912
							c11.689-10.397,40.639-26.714,27.4-40.102c-182.014-184.056-350.599-289.717-490.237-318.068
							C1540.613,2638.376,1387.579,2602.542,1221.973,2747.615z"/>
						<g style="opacity:0.24;">
							<path style="fill:#552D63;" d="M1903.805,2817.597c34.094,19.832,41.362-20.462,58.951-46.97
								c-75.499-46.357-146.398-76.265-211.032-89.387c-211.111-42.864-364.145-78.698-529.751,66.376
								c-58.161,50.949,63.243,218.038,257.185,163.881c70.143-19.587,146.011-30.484,223.246-32.077
								C1764.527,2840.353,1815.358,2750.713,1903.805,2817.597z"/>
						</g>
					</g>
				</g>
				<g>
					
						<linearGradient id="SVGID_00000066498083129279335610000001140346333487301788_" gradientUnits="userSpaceOnUse" x1="594.7691" y1="2914.8936" x2="1659.1177" y2="2717.146" gradientTransform="matrix(0.9981 -0.0611 0.0611 0.9981 -36.4323 49.9065)">
						<stop  offset="0" style="stop-color:#311944"/>
						<stop  offset="1" style="stop-color:#893976"/>
					</linearGradient>
					<path style="fill:url(#SVGID_00000066498083129279335610000001140346333487301788_);" d="M1187.645,2921.669l-11.938,4.563
						c0,0-77.224-72.909-90.987-91.489c-16.793-22.67,172.306-80.475,233.712-156.101c64.525-79.466,13.547,94.343,13.547,94.343
						L1187.645,2921.669z"/>
				</g>
				<g>
					
						<linearGradient id="SVGID_00000162336395413793339920000008468198318362959246_" gradientUnits="userSpaceOnUse" x1="1470.4604" y1="3104.4321" x2="1196.4543" y2="2455.6077" gradientTransform="matrix(0.9981 -0.0611 0.0611 0.9981 -36.4323 49.9065)">
						<stop  offset="0" style="stop-color:#AA80F9"/>
						<stop  offset="0.9964" style="stop-color:#6165D7"/>
					</linearGradient>
					<path style="fill:url(#SVGID_00000162336395413793339920000008468198318362959246_);" d="M1117.613,2206.337
						c0,0,68.556,9.398,143.729,142.697c56.519,100.222,179.231,183.252,179.231,183.252l12.599,78.863l-101.846,17.891
						l-36.431-23.99l-99.382-211.45L1117.613,2206.337z"/>
					<g>
						
							<linearGradient id="SVGID_00000100379559171343319260000017858816968216468926_" gradientUnits="userSpaceOnUse" x1="1040.4569" y1="2804.2322" x2="924.1334" y2="2349.2769" gradientTransform="matrix(0.9981 -0.0611 0.0611 0.9981 -36.4323 49.9065)">
							<stop  offset="0" style="stop-color:#AA80F9"/>
							<stop  offset="0.9964" style="stop-color:#6165D7"/>
						</linearGradient>
						<path style="fill:url(#SVGID_00000100379559171343319260000017858816968216468926_);" d="M984.686,2197.837
							c0,0-168.992,20.842-172.621,215.293c-3.349,179.448,61.395,248.971,220.26,398.601c15.974,15.045,41.88,15.052,43.799,17.215
							c10.32,11.64,20.782,23.766,31.353,36.451c142.178-136.442,302.494-182.65,302.494-182.65s-148.266-306.733-213.416-408.408
							C1129.385,2169.509,1028.073,2187.41,984.686,2197.837z"/>
						<g style="opacity:0.2;">
							
								<linearGradient id="SVGID_00000093882312064536576980000003315439700056567996_" gradientUnits="userSpaceOnUse" x1="1040.4575" y1="2804.2329" x2="924.1351" y2="2349.282" gradientTransform="matrix(0.9981 -0.0611 0.0611 0.9981 -36.4323 49.9065)">
								<stop  offset="0" style="stop-color:#AA80F9"/>
								<stop  offset="0.9964" style="stop-color:#6165D7"/>
							</linearGradient>
							<path style="fill:url(#SVGID_00000093882312064536576980000003315439700056567996_);" d="M1265.258,2650.821
								c-71.335,38.168-172.437,33.852-209.617-13.383c-27.999-35.572-32.537-48.828-66.623-104.688
								c-27.421-44.939-40.771-52.143-100.684-89.978c-22.61-14.278-48.273-34.946-73.437-65.923
								c-1.589,11.381-2.592,23.427-2.832,36.28c-3.349,179.448,61.395,248.972,220.26,398.601
								c15.974,15.045,41.88,15.051,43.8,17.214c10.32,11.64,20.781,23.766,31.352,36.452
								c142.178-136.443,302.494-182.65,302.494-182.65s-24.605-48.245-57.194-116.08
								C1329.141,2606.27,1311.021,2626.336,1265.258,2650.821z"/>
						</g>
					</g>
					
						<linearGradient id="SVGID_00000163778845328860880370000006562480917327161777_" gradientUnits="userSpaceOnUse" x1="1007.3873" y1="2657.0679" x2="1566.1201" y2="2508.8735" gradientTransform="matrix(0.9981 -0.0611 0.0611 0.9981 -36.4323 49.9065)">
						<stop  offset="0" style="stop-color:#FFC444"/>
						<stop  offset="0.9964" style="stop-color:#F36F56"/>
					</linearGradient>
					<path style="fill:url(#SVGID_00000163778845328860880370000006562480917327161777_);" d="M1148.74,2656.53
						c0,0,32.026,1.479,54.773-7.684c22.746-9.162,20.874-11.266,47.055-14.59c25.449-3.232,75.575-18.337,47.196-44.148
						c-31.588-28.73-85.733-20.675-101.292-1.602c-14.997,18.385-40.993,30.061-40.993,30.061L1148.74,2656.53z"/>
					
						<linearGradient id="SVGID_00000149370720983517556020000008024068081605467564_" gradientUnits="userSpaceOnUse" x1="932.3251" y1="2861.9258" x2="809.9328" y2="2383.2351" gradientTransform="matrix(0.9981 -0.0611 0.0611 0.9981 -36.4323 49.9065)">
						<stop  offset="0.2828" style="stop-color:#AA80F9"/>
						<stop  offset="0.9964" style="stop-color:#6165D7"/>
					</linearGradient>
					<path style="fill:url(#SVGID_00000149370720983517556020000008024068081605467564_);" d="M863.085,2294.763
						c0,0-93.856,10.927-39.089,313.162c28.404,156.753,168.812,134.686,338.357,69.917c11.478-24.01-3.293-74.9-3.293-74.9
						s-210.643,86.853-216.093-39.854C936.856,2421.026,917.845,2279.755,863.085,2294.763z"/>
					<path style="fill:#9F73F8;" d="M1024.007,2262.135c-40.173,0-80.983-29.746-82.939-31.191c-0.677-0.499-0.822-1.455-0.32-2.132
						c0.502-0.68,1.458-0.818,2.131-0.32c0.539,0.397,54.184,39.513,97.607,28.654c12.031-3.004,20.265-8.891,24.475-17.493
						c8.019-16.375-1.068-37.374-1.159-37.583c-0.34-0.771,0.01-1.671,0.778-2.011c0.784-0.334,1.674,0.014,2.011,0.778
						c0.404,0.913,9.743,22.518,1.111,40.156c-4.627,9.447-13.536,15.876-26.475,19.109
						C1035.579,2261.515,1029.8,2262.135,1024.007,2262.135z"/>
					<path style="fill:#AE87F9;" d="M1083.731,2822.732c-0.418,0-0.832-0.172-1.132-0.505c-0.566-0.623-0.515-1.59,0.111-2.152
						c1.513-1.364,152.795-136.783,289.368-170.176c0.836-0.223,1.644,0.306,1.846,1.118c0.198,0.818-0.303,1.643-1.118,1.846
						c-135.827,33.208-286.546,168.118-288.055,169.476C1084.462,2822.601,1084.095,2822.732,1083.731,2822.732z"/>
				</g>
				<g>
					
						<linearGradient id="SVGID_00000131345537468359184150000006498262823589158843_" gradientUnits="userSpaceOnUse" x1="1140.6589" y1="2240.2522" x2="1147.7295" y2="2051.9172" gradientTransform="matrix(0.9955 0.0944 -0.0944 0.9955 70.4199 -66.2741)">
						<stop  offset="0" style="stop-color:#FFC444"/>
						<stop  offset="0.9964" style="stop-color:#F36F56"/>
					</linearGradient>
					<path style="fill:url(#SVGID_00000131345537468359184150000006498262823589158843_);" d="M978.634,2122.7
						c0,0,5.551,63.872,0.536,75.97c-5.016,12.097,10.829,28.589,42.142,34.942c31.313,6.353,6.521-63.696,6.521-63.696
						L978.634,2122.7z"/>
					
						<linearGradient id="SVGID_00000103960317963638717220000002940600515839629732_" gradientUnits="userSpaceOnUse" x1="305.4874" y1="2237.5554" x2="199.3972" y2="1968.1058" gradientTransform="matrix(-0.9879 -0.155 -0.155 0.9879 1568.6239 118.478)">
						<stop  offset="0" style="stop-color:#311944"/>
						<stop  offset="1" style="stop-color:#6B3976"/>
					</linearGradient>
					<path style="fill:url(#SVGID_00000103960317963638717220000002940600515839629732_);" d="M1068.855,2127.447
						c32.548-17.749,31.86-101.067,13.456-107.412c-10.569-3.644-15.772,22.036-50.64,36.901
						c-27.154,11.576-46.472,5.581-56.376,21.558c-4.653,7.506-6.432,18.577-4.921,27.896c0.778,4.8,2.938,11.016,8.103,23.099
						c4.582,10.721,4.21,10.313,5.645,13.449c3.45,7.538,10.437,20.47,24.764,36.742c1.929-4.586,4.641-10.211,8.473-16.167
						c1.474-2.291,7.353-11.224,15.186-18.156C1046.809,2132.736,1059.522,2132.536,1068.855,2127.447z"/>
					
						<linearGradient id="SVGID_00000070808099879396810520000004928746595027497108_" gradientUnits="userSpaceOnUse" x1="1155.8457" y1="2087.3625" x2="1152.3721" y2="2367.2234" gradientTransform="matrix(0.9955 0.0944 -0.0944 0.9955 70.4199 -66.2741)">
						<stop  offset="0" style="stop-color:#FFC444"/>
						<stop  offset="0.9964" style="stop-color:#F36F56"/>
					</linearGradient>
					<path style="fill:url(#SVGID_00000070808099879396810520000004928746595027497108_);" d="M989.791,2162.653
						c0,0,12.188,29.823,45.494,32.979c29.82,2.826,44.789-62.658,28.198-79.735c-5.535-5.697-17.816-9.667-28.519-8.446
						c-6.322,0.721-8.774,2.907-19.125,3.885c-9.548,0.902-11.975-0.53-15.115,1.354c-3.93,2.357-7.614,9.09-4.948,29.367
						c-4.712-6.607-11.119-9.883-16.271-8.392c-0.822,0.238-3.071,1.291-4.547,3.197
						C969.618,2143.757,974.967,2154.521,989.791,2162.653z"/>
				</g>
				<g>
					<path style="fill:#26264F;" d="M1171.247,2697.146c-1.542,0.224-2.956,1.339-3.346,2.804c-0.057,0.216,0.542,7.877,0.522,8.106
						c-0.151,1.78,0.944,3.431,2.644,3.984l143.698,46.676l268.542-105.169l-127.594,9.757L1171.247,2697.146z"/>
					<path style="fill:#444B8C;" d="M1171.183,2696.108c-1.769,0.257-3.127,1.699-3.279,3.48c-0.151,1.781,0.944,3.431,2.644,3.984
						l143.701,46.676l268.546-105.169l-127.596,9.757L1171.183,2696.108z"/>
					
						<linearGradient id="SVGID_00000096754060555286278410000005736821769679141767_" gradientUnits="userSpaceOnUse" x1="1176.9778" y1="2618.4277" x2="1558.8628" y2="2618.4277" gradientTransform="matrix(0.9981 -0.0611 0.0611 0.9981 -36.4323 49.9065)">
						<stop  offset="0" style="stop-color:#40447E"/>
						<stop  offset="0.9964" style="stop-color:#3C3B6B"/>
					</linearGradient>
					<path style="fill:url(#SVGID_00000096754060555286278410000005736821769679141767_);" d="M1307.888,2748.154l21.406-280.135
						c0.343-4.49,3.729-8.154,8.177-8.85l321.594-50.336c2.88-0.451,5.81,0.417,7.98,2.362c2.17,1.946,3.351,4.764,3.217,7.675
						l-12.07,261.103c-0.208,4.506-3.494,8.275-7.929,9.096l-334.093,61.853L1307.888,2748.154z"/>
					<path style="fill:#26264F;" d="M1314.765,2758.715l22.077-286.308c0.346-4.487,3.731-8.147,8.177-8.843l321.6-50.337
						c2.88-0.451,5.81,0.417,7.98,2.362c2.17,1.946,3.351,4.764,3.217,7.676l-12.072,261.141c-0.207,4.489-3.469,8.248-7.883,9.087
						L1314.765,2758.715z"/>
					<path style="fill:#1F1F44;" d="M1314.766,2758.714l343.095-65.222c4.414-0.839,7.675-4.599,7.883-9.087l3.641-78.757
						c-102.205,58.042-230.292,65.423-349.656,88.707L1314.766,2758.714z"/>
				</g>
				<g>
					
						<linearGradient id="SVGID_00000034058814677002889650000014471619343356833469_" gradientUnits="userSpaceOnUse" x1="611.4767" y1="2878.2332" x2="801.1528" y2="2878.2332" gradientTransform="matrix(0.9263 -0.3767 0.3767 0.9263 246.4166 267.383)">
						<stop  offset="0" style="stop-color:#40447E"/>
						<stop  offset="0.9964" style="stop-color:#3C3B6B"/>
					</linearGradient>
					<path style="fill:url(#SVGID_00000034058814677002889650000014471619343356833469_);" d="M1895.872,2700.031
						c-4.691-16.287-15.057-34.285,21.945-47.416c26.86-9.533,73.521-12.596,115.93-14.771
						c59.429-3.047,73.097,32.508-13.754,55.128C1963.118,2707.785,1902.543,2723.19,1895.872,2700.031z"/>
					
						<linearGradient id="SVGID_00000082333036871784131880000014132697649326435476_" gradientUnits="userSpaceOnUse" x1="1736.9261" y1="2677.5598" x2="3647.4456" y2="4660.1733" gradientTransform="matrix(0.9981 -0.0611 0.0611 0.9981 -36.4323 49.9065)">
						<stop  offset="0" style="stop-color:#FFC444"/>
						<stop  offset="0.9964" style="stop-color:#F36F56"/>
					</linearGradient>
					<path style="fill:url(#SVGID_00000082333036871784131880000014132697649326435476_);" d="M1942.178,2675.096
						c0.558,9.113-5.245,16.266-12.822,17.349c-17.584,2.511-14.285-6.541-14.843-15.655c-0.558-9.114-7.668-15.442,12.822-17.349
						C1934.956,2658.732,1941.62,2665.982,1942.178,2675.096z"/>
					
						<linearGradient id="SVGID_00000120557845087154188860000005971089003533167264_" gradientUnits="userSpaceOnUse" x1="944.1409" y1="2813.1526" x2="1819.1444" y2="2727.8494" gradientTransform="matrix(0.9981 -0.0611 0.0611 0.9981 -36.4323 49.9065)">
						<stop  offset="0" style="stop-color:#311944"/>
						<stop  offset="1" style="stop-color:#6B3976"/>
					</linearGradient>
					<path style="fill:url(#SVGID_00000120557845087154188860000005971089003533167264_);" d="M1761.733,2622.68l17.358-2.735
						c0,0,33.814,3.162,127,28.855c19.949,3.31,47.146,61.531-11.306,63.817s-129.594,45.812-129.594,45.812L1761.733,2622.68z"/>
					
						<linearGradient id="SVGID_00000018958755867413335980000015272774833308892816_" gradientUnits="userSpaceOnUse" x1="607.7135" y1="2984.5583" x2="1672.0676" y2="2786.8098" gradientTransform="matrix(0.9981 -0.0611 0.0611 0.9981 -36.4323 49.9065)">
						<stop  offset="0" style="stop-color:#311944"/>
						<stop  offset="1" style="stop-color:#893976"/>
					</linearGradient>
					<path style="fill:url(#SVGID_00000018958755867413335980000015272774833308892816_);" d="M1154.847,2893.572
						c0,0,8.512,75.552,184.192,68.677c175.681-6.875,489.522-189.25,487.545-284.948c-1.976-95.699-118.763-57.469-239.682-2.154
						c-102.062,46.689-259.714,73.73-292.025,78.744C1253.512,2760.309,1144.855,2857.281,1154.847,2893.572z"/>
					<g style="opacity:0.2;">
						
							<linearGradient id="SVGID_00000145746103322568234880000015314764731087297418_" gradientUnits="userSpaceOnUse" x1="987.3534" y1="2845.8418" x2="1631.2838" y2="2708.2158" gradientTransform="matrix(0.9981 -0.0611 0.0611 0.9981 -36.4323 49.9065)">
							<stop  offset="0" style="stop-color:#311944"/>
							<stop  offset="1" style="stop-color:#6B3976"/>
						</linearGradient>
						<path style="fill:url(#SVGID_00000145746103322568234880000015314764731087297418_);" d="M1384.714,2798.889
							c81.319-8.285,99.578-66.641,200.768-83.514c65.575-10.934,88.731,8.433,122.158-13.955
							c26.388-17.673,39.857-48.487,46.342-81.954c-44.845,3.802-105.373,27.453-167.078,55.681
							c-99.13,45.347-250.7,72.16-288.933,78.258c-1.132,0.18-26.763-8.986-26.763-8.986s-19.08,10.902-32.761,19.51
							C1291.755,2792.503,1355.014,2801.914,1384.714,2798.889z"/>
					</g>
				</g>
			</g>
		</g>
	</g>
</g>
</svg>
