<?xml version="1.0" encoding="utf-8"?>
<!-- Generator: Adobe Illustrator 27.5.0, SVG Export Plug-In . SVG Version: 6.00 Build 0)  -->
<svg version="1.1" xmlns="http://www.w3.org/2000/svg" xmlns:xlink="http://www.w3.org/1999/xlink" x="0px" y="0px"
	 viewBox="0 0 3710 3710" style="enable-background:new 0 0 3710 3710;" xml:space="preserve">
<g id="Background">
	<g>
		<g>
			<rect style="fill:#FFFFFF;" width="3710" height="3710"/>
		</g>
	</g>
</g>
<g id="Illustration">
	<g>
		<linearGradient id="SVGID_1_" gradientUnits="userSpaceOnUse" x1="3593.7312" y1="4039.252" x2="1139.0883" y2="990.7395">
			<stop  offset="0" style="stop-color:#DAE3FE"/>
			<stop  offset="1" style="stop-color:#E9EFFD"/>
		</linearGradient>
		<path style="fill:url(#SVGID_1_);" d="M2918.443,2837.029c-56.382,59.357-109.73,97.635-151.88,127.878
			c-495.458,355.497-1081.717,251.871-1206.314,226.565c-183.99-37.369-539.639-109.604-796.766-411.98
			c-389.013-457.471-328.438-1178.203-26.693-1653.969c55.194-87.026,346.744-570.038,939.317-647.498
			c358.619-46.878,776.653,47.669,1079.382,301.296C3390.945,1311.706,3345.707,2387.219,2918.443,2837.029z"/>
		<g>
			<g>
				<path style="fill:#BDD0FB;" d="M486.021,3162.225l1198.705,0.001v-239.92l-1198.705,0.002
					C511.678,2922.308,511.678,3162.225,486.021,3162.225z"/>
				
					<linearGradient id="SVGID_00000065058522484880075590000017881430192973036445_" gradientUnits="userSpaceOnUse" x1="1625.9807" y1="2464.7642" x2="654.8974" y2="3519.5596">
					<stop  offset="0" style="stop-color:#4F52FF"/>
					<stop  offset="1" style="stop-color:#4042E2"/>
				</linearGradient>
				<path style="fill:url(#SVGID_00000065058522484880075590000017881430192973036445_);" d="M1684.726,3102.188V2992.39
					c0-38.706-23.689-70.082-52.91-70.082H491.076c-22.98,0-41.608-18.629-41.608-41.608v0c0-6.982,5.66-12.642,12.642-12.642
					H1708.85c28.592,0,73.986,44.953,73.986,100.405v153.345c0,52.283-44.07,94.667-71.027,94.667H468.668
					c-10.604,0-19.2-8.596-19.2-19.2c0-19.357,15.692-35.048,35.048-35.048H1639.4
					C1664.433,3162.225,1684.726,3135.345,1684.726,3102.188z"/>
			</g>
			
				<linearGradient id="SVGID_00000062152980945598080540000006709931569108786326_" gradientUnits="userSpaceOnUse" x1="524.1373" y1="2971.5325" x2="1654.8746" y2="2971.5325">
				<stop  offset="0" style="stop-color:#DAE3FE"/>
				<stop  offset="1" style="stop-color:#E9EFFD"/>
			</linearGradient>
			<path style="fill:url(#SVGID_00000062152980945598080540000006709931569108786326_);" d="M1651.48,2974.927H527.532
				c-1.876,0-3.395-1.52-3.395-3.395s1.518-3.395,3.395-3.395H1651.48c1.876,0,3.395,1.52,3.395,3.395
				S1653.356,2974.927,1651.48,2974.927z"/>
			
				<linearGradient id="SVGID_00000156557077002223012000000016228115116416262321_" gradientUnits="userSpaceOnUse" x1="524.1373" y1="3007.1448" x2="1654.8746" y2="3007.1448">
				<stop  offset="0" style="stop-color:#DAE3FE"/>
				<stop  offset="1" style="stop-color:#E9EFFD"/>
			</linearGradient>
			<path style="fill:url(#SVGID_00000156557077002223012000000016228115116416262321_);" d="M1651.48,3010.54H527.532
				c-1.876,0-3.395-1.52-3.395-3.395c0-1.875,1.518-3.395,3.395-3.395H1651.48c1.876,0,3.395,1.52,3.395,3.395
				C1654.875,3009.02,1653.356,3010.54,1651.48,3010.54z"/>
			
				<linearGradient id="SVGID_00000094598800651003408590000012111769514113335711_" gradientUnits="userSpaceOnUse" x1="524.1373" y1="3042.7571" x2="1654.8746" y2="3042.7571">
				<stop  offset="0" style="stop-color:#DAE3FE"/>
				<stop  offset="1" style="stop-color:#E9EFFD"/>
			</linearGradient>
			<path style="fill:url(#SVGID_00000094598800651003408590000012111769514113335711_);" d="M1651.48,3046.152H527.532
				c-1.876,0-3.395-1.52-3.395-3.395c0-1.875,1.518-3.395,3.395-3.395H1651.48c1.876,0,3.395,1.52,3.395,3.395
				C1654.875,3044.632,1653.356,3046.152,1651.48,3046.152z"/>
			
				<linearGradient id="SVGID_00000165234871127495597430000002096015866092579228_" gradientUnits="userSpaceOnUse" x1="524.1373" y1="3078.3679" x2="1654.8746" y2="3078.3679">
				<stop  offset="0" style="stop-color:#DAE3FE"/>
				<stop  offset="1" style="stop-color:#E9EFFD"/>
			</linearGradient>
			<path style="fill:url(#SVGID_00000165234871127495597430000002096015866092579228_);" d="M1651.48,3081.762H527.532
				c-1.876,0-3.395-1.52-3.395-3.395s1.518-3.395,3.395-3.395H1651.48c1.876,0,3.395,1.52,3.395,3.395
				S1653.356,3081.762,1651.48,3081.762z"/>
			
				<linearGradient id="SVGID_00000033364886229468444890000007196683979690409363_" gradientUnits="userSpaceOnUse" x1="524.1373" y1="3113.9802" x2="1654.8746" y2="3113.9802">
				<stop  offset="0" style="stop-color:#DAE3FE"/>
				<stop  offset="1" style="stop-color:#E9EFFD"/>
			</linearGradient>
			<path style="fill:url(#SVGID_00000033364886229468444890000007196683979690409363_);" d="M1651.48,3117.375H527.532
				c-1.876,0-3.395-1.52-3.395-3.395c0-1.875,1.518-3.395,3.395-3.395H1651.48c1.876,0,3.395,1.52,3.395,3.395
				C1654.875,3115.855,1653.356,3117.375,1651.48,3117.375z"/>
		</g>
		<g>
			<path style="fill:#7D97F4;" d="M650.388,2870.798h966.744c37.674,0,68.215-30.541,68.215-68.215v-129.858
				c0-37.674-30.541-68.216-68.215-68.216H650.388c-37.674,0-68.216,30.541-68.216,68.216v129.858
				C582.172,2840.257,612.714,2870.798,650.388,2870.798z"/>
			
				<linearGradient id="SVGID_00000012457696922668349380000012680180113165438896_" gradientUnits="userSpaceOnUse" x1="2022.2439" y1="2030.3439" x2="1033.8011" y2="3358.5642">
				<stop  offset="0" style="stop-color:#53D8FF"/>
				<stop  offset="1" style="stop-color:#3840F7"/>
			</linearGradient>
			<path style="fill:url(#SVGID_00000012457696922668349380000012680180113165438896_);" d="M1438.317,2840.194h115.115
				c4,0,7.242-3.242,7.242-7.242v-190.597c0-4-3.242-7.242-7.242-7.242h-115.115c-4,0-7.242,3.242-7.242,7.242v190.597
				C1431.075,2836.952,1434.317,2840.194,1438.317,2840.194z"/>
			
				<linearGradient id="SVGID_00000079471225725910792720000011428785455049710257_" gradientUnits="userSpaceOnUse" x1="1948.316" y1="1984.3247" x2="969.1027" y2="3300.1431">
				<stop  offset="0" style="stop-color:#53D8FF"/>
				<stop  offset="1" style="stop-color:#3840F7"/>
			</linearGradient>
			<path style="fill:url(#SVGID_00000079471225725910792720000011428785455049710257_);" d="M1367.056,2840.194h41.288
				c2.027,0,3.67-1.643,3.67-3.67v-197.742c0-2.027-1.643-3.669-3.67-3.669h-41.288c-2.027,0-3.67,1.643-3.67,3.669v197.742
				C1363.386,2838.551,1365.029,2840.194,1367.056,2840.194z"/>
		</g>
		<g>
			<path style="fill:#BDD0FB;" d="M1588.974,1935.584c0,0-270.472-946.558-764.089-1447.128
				c-33.182-33.65-90.42-17.479-100.803,28.624C654.656,825.362,536.961,1756.212,1588.974,1935.584z"/>
			
				<linearGradient id="SVGID_00000026150708567202832210000011258453579812131205_" gradientUnits="userSpaceOnUse" x1="827.6609" y1="1330.9374" x2="1491.7321" y2="1330.9374">
				<stop  offset="0" style="stop-color:#DAE3FE"/>
				<stop  offset="1" style="stop-color:#E9EFFD"/>
			</linearGradient>
			<path style="fill:url(#SVGID_00000026150708567202832210000011258453579812131205_);" d="M1490.819,1878.242
				c2.441,2.177-0.487,5.929-3.197,4.1c-99.934-67.453-489.742-403.522-659.899-1101.013c-0.546-2.24,2.739-3.254,3.477-1.069
				C885.576,941.256,1104.893,1534.048,1490.819,1878.242z"/>
		</g>
		<g>
			<path style="fill:#91B3FA;" d="M1804.817,2641.804c0,0-530.104-1075.324-1230.517-1567.687
				c-47.083-33.098-112.148-1.264-114.554,56.238C443.653,1514.857,505.225,2655.843,1804.817,2641.804z"/>
			<path style="fill:#BDD0FB;" d="M1674.724,2594.458c3.398,2.077,0.707,7.211-2.939,5.608
				c-134.426-59.074-674.648-376.92-1030.343-1175.639c-1.142-2.566,2.574-4.495,3.933-2.038
				C745.573,1603.464,1137.384,2266.031,1674.724,2594.458z"/>
		</g>
		<g>
			<path style="fill:#7D97F4;" d="M888.515,645.971c-0.359-32.36,27.97-57.554,60.061-53.372
				c212.832,27.735,944.654,113.131,1549.091,63.568c27.565-2.26,51.605,18.508,53.216,46.119l132.344,2267.43
				c1.815,31.09-21.794,57.807-52.873,59.809c-254.238,16.373-1301.289,80.003-1675.069,42.819
				c-22.749-2.264-40.107-21.316-40.361-44.176L888.515,645.971z"/>
			<path style="fill:#BDD0FB;" d="M913.862,702.676c-0.346-31.141,26.917-55.387,57.799-51.362
				c204.818,26.69,909.083,108.872,1490.76,61.174c26.526-2.175,49.661,17.812,51.212,44.382l127.361,2182.049
				c1.747,29.919-20.974,55.631-50.882,57.557c-244.664,15.757-1252.289,76.99-1611.993,41.206
				c-21.892-2.178-38.597-20.513-38.841-42.512L913.862,702.676z"/>
			<path style="opacity:0.78;fill:#FFFFFF;" d="M1104.208,869.97l24.173,467.826c0.804,15.559,13.441,27.869,29.017,28.227
				c86.675,1.993,356.754,7.175,509.19-1.568c17.243-0.989,30.816-15.013,31.297-32.278c2.451-87.771,7.484-343.224-13.069-449.895
				c-3.32-17.231-18.211-29.792-35.751-30.314l-512.329-15.248C1118.263,836.172,1103.255,851.512,1104.208,869.97z"/>
			
				<linearGradient id="SVGID_00000146491167077387927060000010197565993343247276_" gradientUnits="userSpaceOnUse" x1="1327.8002" y1="751.5552" x2="2423.6704" y2="1997.1332" gradientTransform="matrix(0.981 0.1939 -0.1939 0.981 106.7529 -193.4376)">
				<stop  offset="0" style="stop-color:#CE1567"/>
				<stop  offset="1" style="stop-color:#7A1DBC"/>
			</linearGradient>
			
				<circle style="fill:url(#SVGID_00000146491167077387927060000010197565993343247276_);" cx="1399.829" cy="1035.735" r="100.594"/>
			
				<linearGradient id="SVGID_00000003822646921545846170000013325270352439188906_" gradientUnits="userSpaceOnUse" x1="1231.2823" y1="836.4465" x2="2327.1865" y2="2082.063" gradientTransform="matrix(0.981 0.1939 -0.1939 0.981 106.7529 -193.4376)">
				<stop  offset="0" style="stop-color:#CE1567"/>
				<stop  offset="1" style="stop-color:#7A1DBC"/>
			</linearGradient>
			<path style="fill:url(#SVGID_00000003822646921545846170000013325270352439188906_);" d="M1248.573,1331.866l320.474-1.667
				c19.648-0.102,31.307-21.859,20.641-38.36c-27.443-42.453-84.722-104.732-183.343-101.395
				c-95.051,3.216-151.103,60.032-179.217,100.717C1215.193,1308.432,1227.58,1331.975,1248.573,1331.866z"/>
			<g style="opacity:0.6;">
				<path style="fill:#FFFFFF;" d="M2388.19,904.023c8.81-0.046,15.775-7.146,15.478-15.779s-7.748-15.786-16.557-15.898
					l-566.219-7.143c-8.809-0.111-13.587,6.584-10.617,14.878l4.231,11.818c2.97,8.294,12.608,15.043,21.417,14.997L2388.19,904.023
					z"/>
			</g>
			<g style="opacity:0.6;">
				<path style="fill:#FFFFFF;" d="M1821.345,952.438c-8.809-0.111-13.587,6.584-10.617,14.878l4.232,11.818
					c2.97,8.294,12.608,15.043,21.417,14.997l552.267-2.874c8.81-0.046,15.775-7.146,15.478-15.779s-7.748-15.786-16.557-15.898
					L1821.345,952.438z"/>
			</g>
			<g style="opacity:0.6;">
				<path style="fill:#FFFFFF;" d="M1821.806,1040.941c-8.809-0.111-13.587,6.584-10.617,14.879l4.231,11.818
					c2.97,8.294,12.608,15.043,21.417,14.997l552.267-2.874c8.81-0.046,15.775-7.146,15.478-15.779
					c-0.297-8.633-7.748-15.786-16.557-15.898L1821.806,1040.941z"/>
			</g>
			<g style="opacity:0.6;">
				<path style="fill:#FFFFFF;" d="M2445.885,1506.283c8.81-0.046,15.515-7.145,14.9-15.776s-8.326-15.712-17.136-15.735
					l-1320.445-3.537c-8.81-0.024-11.499,5.573-5.975,12.436l13.62,16.924c5.524,6.863,17.251,12.441,26.061,12.396
					L2445.885,1506.283z"/>
			</g>
			<g style="opacity:0.6;">
				<path style="fill:#FFFFFF;" d="M1123.657,1558.47c-8.81-0.024-11.499,5.573-5.975,12.436l13.62,16.924
					c5.524,6.863,17.251,12.441,26.061,12.395l1288.976-6.707c8.81-0.046,15.515-7.145,14.9-15.776
					c-0.615-8.631-8.326-15.712-17.136-15.735L1123.657,1558.47z"/>
			</g>
			<path style="opacity:0.6;fill:#FFFFFF;" d="M1120.706,1704.158c31.627-2.589,90.872-4.022,123.485-4.647
				c13.819-0.265,25.989,9.034,29.3,22.453c6.431,26.064,15.349,71.33,14.507,119.346c-0.253,14.38-11.971,25.918-26.353,25.838
				l-120.366-0.67c-14.802-0.082-27.15-11.334-28.603-26.064l-11.171-113.172C1100.35,1715.535,1108.982,1705.118,1120.706,1704.158
				z"/>
			<g style="opacity:0.6;">
				<path style="fill:#FFFFFF;" d="M1341.297,1749.413c-8.804-0.322-14.9,6.537-13.546,15.242l3.701,23.801
					c1.354,8.705,9.669,15.79,18.479,15.745l296.775-1.544c8.81-0.046,15.891-7.29,15.735-16.099l-0.166-9.398
					c-0.156-8.809-7.486-16.279-16.29-16.601L1341.297,1749.413z"/>
			</g>
			<path style="opacity:0.6;fill:#FFFFFF;" d="M1776.409,1700.746c31.627-2.589,90.872-4.022,123.486-4.647
				c13.819-0.265,25.989,9.034,29.3,22.453c6.431,26.064,15.349,71.33,14.506,119.346c-0.252,14.38-11.97,25.918-26.352,25.838
				l-120.366-0.67c-14.802-0.082-27.149-11.334-28.603-26.064l-11.171-113.172
				C1756.053,1712.123,1764.684,1701.706,1776.409,1700.746z"/>
			<g style="opacity:0.6;">
				<path style="fill:#FFFFFF;" d="M1996.999,1746.001c-8.804-0.322-14.9,6.537-13.546,15.242l3.701,23.801
					c1.354,8.705,9.67,15.79,18.479,15.745l296.775-1.544c8.81-0.046,15.891-7.29,15.735-16.099l-0.166-9.398
					c-0.156-8.808-7.486-16.279-16.29-16.601L1996.999,1746.001z"/>
			</g>
			<g>
				<path style="fill:#FFFFFF;" d="M1292.865,2152.51c-0.1,0-0.202,0.001-0.304,0.002l-111.068-0.488
					c-15.868-0.072-29.023-10.922-30.601-25.235l-10.247-93.134c-0.602-5.469,1.07-10.882,4.703-15.253
					c4.068-4.889,10.246-7.978,16.95-8.475l0,0c9.353-0.686,22.525-1.879,36.469-3.138c29.361-2.656,65.904-5.956,86.472-6.322
					c14.924-0.152,27.629,8.614,31.213,21.592c5.897,21.361,5.6,61.856,4.723,104.998
					C1320.891,2141.071,1308.22,2152.431,1292.865,2152.51z M1162.925,2018.435c-4.408,0.323-8.425,2.301-11.019,5.421
					c-2.142,2.572-3.129,5.721-2.783,8.864l10.247,93.134c1.101,10.005,10.63,17.589,22.163,17.641l111.067,0.488
					c0.073,0,0.148-0.001,0.223-0.001c10.763-0.056,19.634-7.685,19.827-17.097c0.862-42.488,1.173-82.3-4.419-102.559
					c-2.506-9.078-11.998-15.354-22.839-15.331c-20.261,0.359-56.631,3.647-85.855,6.289
					C1185.554,2016.548,1172.347,2017.741,1162.925,2018.435L1162.925,2018.435z"/>
				<path style="opacity:0.6;fill:#FFFFFF;" d="M1174.923,2027.99c23.323-1.716,74.006-7.129,98.056-7.553
					c10.19-0.18,19.16,5.93,21.596,14.755c4.731,17.139,4.294,51.351,3.653,82.931c-0.192,9.457-8.838,17.051-19.443,17.004
					l-88.758-0.391c-10.915-0.048-20.015-7.443-21.081-17.13l-8.19-74.426C1159.908,2035.481,1166.277,2028.626,1174.923,2027.99z"
					/>
				<g style="opacity:0.6;">
					<path style="fill:#FFFFFF;" d="M1390.092,2090.128c3.279,12.176,14.399,20.576,27.007,20.403l1027.555-14.109
						c11.624-0.16,20.874-9.794,20.559-21.416c-0.306-11.298-9.557-20.296-20.859-20.289l-1027.652,0.66
						C1398.563,2055.39,1385.375,2072.612,1390.092,2090.128z"/>
				</g>
				<path style="fill:#FFFFFF;" d="M1294.104,2390.546c-0.1,0-0.202,0.001-0.304,0.002l-111.068-0.488
					c-15.868-0.072-29.024-10.922-30.601-25.234l-10.247-93.135c-0.601-5.469,1.07-10.883,4.703-15.253
					c4.068-4.889,10.246-7.978,16.95-8.475l0,0c9.353-0.686,22.525-1.879,36.469-3.138c29.361-2.655,65.904-5.956,86.472-6.322
					c0.15-0.001,0.3-0.006,0.448-0.007c14.606-0.076,27.217,8.753,30.766,21.598c5.898,21.361,5.6,61.856,4.723,104.998
					C1322.13,2379.107,1309.459,2390.466,1294.104,2390.546z M1164.164,2256.471c-4.408,0.323-8.425,2.301-11.019,5.421
					c-2.142,2.572-3.129,5.721-2.783,8.864l10.247,93.134c1.101,10.005,10.629,17.589,22.163,17.641l111.068,0.488
					c0.073,0,0.148-0.001,0.223-0.001c10.762-0.056,19.634-7.685,19.827-17.097c0.862-42.489,1.173-82.301-4.419-102.56
					c-2.508-9.073-12.134-15.557-22.841-15.33c-20.26,0.359-56.63,3.646-85.853,6.289
					C1186.793,2254.583,1173.586,2255.777,1164.164,2256.471L1164.164,2256.471z"/>
				<path style="opacity:0.6;fill:#FFFFFF;" d="M1176.161,2266.026c23.323-1.716,74.006-7.129,98.056-7.553
					c10.19-0.18,19.16,5.93,21.596,14.755c4.731,17.139,4.294,51.352,3.653,82.931c-0.192,9.458-8.838,17.051-19.443,17.004
					l-88.758-0.391c-10.915-0.048-20.015-7.442-21.081-17.13l-8.19-74.426C1161.146,2273.517,1167.516,2266.662,1176.161,2266.026z"
					/>
				<g style="opacity:0.6;">
					<path style="fill:#FFFFFF;" d="M1391.331,2328.163c3.279,12.176,14.399,20.576,27.007,20.403l1027.555-14.109
						c11.624-0.16,20.874-9.794,20.559-21.416c-0.306-11.298-9.557-20.296-20.859-20.288l-1027.652,0.66
						C1399.802,2293.426,1386.613,2310.647,1391.331,2328.163z"/>
				</g>
				<path style="fill:#FFFFFF;" d="M1295.342,2628.581c-0.1,0-0.202,0.001-0.304,0.002l-111.068-0.488
					c-15.868-0.068-29.024-10.914-30.601-25.231l-10.247-93.135c-0.602-5.469,1.07-10.887,4.705-15.257
					c4.068-4.889,10.244-7.978,16.948-8.475l0,0c9.353-0.686,22.525-1.879,36.469-3.138c29.361-2.656,65.904-5.956,86.472-6.322
					c0.15-0.001,0.3-0.006,0.447-0.007c14.606-0.076,27.217,8.753,30.766,21.598c5.897,21.361,5.6,61.856,4.723,104.999
					C1323.368,2617.142,1310.697,2628.501,1295.342,2628.581z M1165.402,2494.506c-4.408,0.323-8.425,2.301-11.019,5.421
					c-2.142,2.573-3.129,5.721-2.783,8.868l10.247,93.135c1.101,10.005,10.629,17.589,22.16,17.637l111.07,0.488
					c0.073,0,0.148-0.001,0.223-0.001c10.763-0.056,19.634-7.686,19.827-17.098c0.862-42.488,1.173-82.301-4.419-102.559
					c-2.508-9.073-12.135-15.59-22.841-15.331c-20.26,0.36-56.63,3.647-85.853,6.289
					C1188.032,2492.619,1174.825,2493.812,1165.402,2494.506L1165.402,2494.506z"/>
				<path style="opacity:0.6;fill:#FFFFFF;" d="M1177.4,2504.062c23.323-1.716,74.006-7.129,98.056-7.553
					c10.19-0.18,19.16,5.93,21.596,14.755c4.731,17.139,4.294,51.352,3.653,82.931c-0.192,9.458-8.838,17.051-19.443,17.004
					l-88.758-0.39c-10.915-0.048-20.015-7.443-21.081-17.13l-8.19-74.426C1162.385,2511.553,1168.755,2504.698,1177.4,2504.062z"/>
				<g style="opacity:0.6;">
					<path style="fill:#FFFFFF;" d="M1392.569,2566.199c3.279,12.176,14.399,20.576,27.007,20.403l1027.555-14.109
						c11.625-0.16,20.874-9.794,20.559-21.416c-0.306-11.298-9.557-20.296-20.859-20.288l-1027.652,0.66
						C1401.04,2531.462,1387.852,2548.683,1392.569,2566.199z"/>
				</g>
				<path style="fill:#FFFFFF;" d="M1296.581,2866.617c-0.1,0.001-0.202,0.001-0.304,0.002l-111.068-0.488
					c-15.868-0.068-29.023-10.913-30.601-25.23l-10.247-93.135c-0.601-5.469,1.07-10.886,4.705-15.258
					c4.068-4.889,10.244-7.978,16.948-8.475l0,0c9.353-0.686,22.525-1.879,36.469-3.138c29.361-2.656,65.904-5.956,86.472-6.322
					c0.15-0.001,0.3-0.006,0.448-0.007c14.606-0.076,27.217,8.753,30.766,21.598c5.897,21.361,5.6,61.856,4.723,104.998
					C1324.607,2855.177,1311.936,2866.537,1296.581,2866.617z M1166.641,2732.542c-4.408,0.323-8.425,2.301-11.019,5.421
					c-2.142,2.572-3.129,5.721-2.783,8.867l10.247,93.135c1.101,10.005,10.629,17.589,22.16,17.637l111.07,0.488
					c0.073,0,0.148,0,0.223-0.001c10.762-0.056,19.634-7.685,19.827-17.098c0.862-42.488,1.173-82.3-4.419-102.559
					c-2.508-9.073-12.135-15.62-22.841-15.331c-20.26,0.36-56.63,3.647-85.853,6.289
					C1189.27,2730.654,1176.063,2731.847,1166.641,2732.542L1166.641,2732.542z"/>
				<path style="opacity:0.6;fill:#FFFFFF;" d="M1178.639,2742.098c23.323-1.716,74.007-7.129,98.056-7.553
					c10.19-0.18,19.16,5.93,21.596,14.755c4.731,17.139,4.294,51.352,3.653,82.931c-0.192,9.458-8.838,17.051-19.443,17.004
					l-88.758-0.39c-10.915-0.048-20.015-7.443-21.082-17.13l-8.19-74.426C1163.624,2749.588,1169.993,2742.734,1178.639,2742.098z"
					/>
				<g style="opacity:0.6;">
					<path style="fill:#FFFFFF;" d="M1393.808,2804.235L1393.808,2804.235c3.279,12.176,14.399,20.577,27.007,20.403
						l1027.555-14.108c11.624-0.16,20.874-9.794,20.559-21.416c-0.306-11.298-9.557-20.296-20.859-20.288l-1027.652,0.66
						C1402.279,2769.497,1389.09,2786.719,1393.808,2804.235z"/>
				</g>
				
					<linearGradient id="SVGID_00000026129472568375638320000001323827449111379097_" gradientUnits="userSpaceOnUse" x1="1427.2799" y1="1993.0541" x2="860.1552" y2="2961.0027" gradientTransform="matrix(1 -0.0052 0.0052 1 378.2248 -224.4017)">
					<stop  offset="0" style="stop-color:#A737D5"/>
					<stop  offset="1" style="stop-color:#EF497A"/>
				</linearGradient>
				<path style="fill:url(#SVGID_00000026129472568375638320000001323827449111379097_);" d="M1183.443,2756.686L1183.443,2756.686
					c8.22-4.881,18.846-2.049,23.547,6.275l22.111,39.155c2.213,3.919,7.948,3.641,9.771-0.475l53.704-121.246
					c2.679-6.049,11.676-4.055,11.611,2.559c-0.362,37.004-9.813,107.386-68.627,166.566c0,0-32.645-12.494-59.182-69.971
					C1172.545,2771.246,1175.58,2761.355,1183.443,2756.686z"/>
			</g>
		</g>
		<g>
			<path style="fill:#7D97F4;" d="M1022.689,787.205c-0.359-32.359,27.97-57.554,60.061-53.372
				c212.832,27.735,944.655,113.132,1549.091,63.568c27.565-2.26,51.605,18.508,53.216,46.118l132.344,2267.43
				c1.815,31.09-21.794,57.807-52.873,59.809c-254.238,16.373-1301.289,80.003-1675.069,42.819
				c-22.749-2.263-40.107-21.316-40.361-44.176L1022.689,787.205z"/>
			<path style="fill:#BDD0FB;" d="M1048.037,843.911c-0.345-31.141,26.917-55.387,57.799-51.362
				c204.818,26.691,909.083,108.872,1490.759,61.174c26.527-2.175,49.661,17.812,51.212,44.382l127.361,2182.049
				c1.747,29.919-20.974,55.631-50.882,57.557c-244.665,15.757-1252.289,76.99-1611.993,41.206
				c-21.892-2.178-38.597-20.513-38.841-42.512L1048.037,843.911z"/>
			<g>
				<path style="fill:#FFFFFF;" d="M1419.305,2200.928c-0.1,0-0.202,0.001-0.304,0.001l-111.068-0.488
					c-15.868-0.072-29.023-10.922-30.601-25.235l-10.247-93.135c-0.602-5.469,1.07-10.882,4.703-15.253
					c4.068-4.889,10.246-7.978,16.95-8.475l0,0c9.353-0.686,22.525-1.879,36.469-3.138c29.361-2.656,65.904-5.956,86.472-6.322
					c14.924-0.152,27.629,8.614,31.213,21.592c5.897,21.361,5.6,61.856,4.723,104.998
					C1447.331,2189.489,1434.66,2200.848,1419.305,2200.928z M1289.365,2066.853c-4.408,0.323-8.425,2.301-11.019,5.421
					c-2.142,2.572-3.129,5.721-2.783,8.864l10.247,93.135c1.101,10.005,10.629,17.589,22.163,17.641l111.068,0.488
					c0.073,0,0.148-0.001,0.223-0.001c10.763-0.056,19.634-7.685,19.827-17.097c0.862-42.488,1.173-82.3-4.419-102.56
					c-2.506-9.078-11.998-15.354-22.839-15.331c-20.261,0.359-56.631,3.647-85.855,6.289
					C1311.994,2064.965,1298.787,2066.158,1289.365,2066.853L1289.365,2066.853z"/>
				<path style="opacity:0.6;fill:#FFFFFF;" d="M1301.362,2076.408c23.323-1.716,74.006-7.129,98.056-7.553
					c10.19-0.18,19.16,5.93,21.596,14.755c4.731,17.138,4.294,51.351,3.653,82.93c-0.192,9.457-8.838,17.051-19.443,17.004
					l-88.758-0.391c-10.915-0.048-20.015-7.443-21.081-17.13l-8.19-74.426C1286.347,2083.898,1292.717,2077.044,1301.362,2076.408z"
					/>
				<g style="opacity:0.6;">
					<path style="fill:#FFFFFF;" d="M1516.532,2138.545c3.279,12.176,14.399,20.576,27.007,20.403l1027.555-14.109
						c11.624-0.159,20.874-9.794,20.559-21.415c-0.306-11.298-9.557-20.296-20.859-20.289l-1027.652,0.66
						C1525.003,2103.807,1511.814,2121.029,1516.532,2138.545z"/>
				</g>
				<path style="fill:#FFFFFF;" d="M1420.543,2477.638c-0.1,0-0.202,0.001-0.304,0.001l-111.068-0.488
					c-15.868-0.072-29.023-10.922-30.601-25.234l-10.247-93.135c-0.601-5.468,1.07-10.882,4.703-15.253
					c4.068-4.889,10.246-7.978,16.95-8.475l0,0c9.353-0.686,22.525-1.879,36.468-3.138c29.361-2.655,65.904-5.956,86.472-6.322
					c0.15-0.001,0.3-0.006,0.448-0.006c14.606-0.076,27.217,8.753,30.766,21.598c5.897,21.361,5.6,61.856,4.723,104.998
					C1448.569,2466.198,1435.898,2477.558,1420.543,2477.638z M1290.603,2343.562c-4.408,0.323-8.424,2.301-11.019,5.421
					c-2.142,2.572-3.129,5.721-2.783,8.864l10.247,93.134c1.101,10.005,10.63,17.589,22.163,17.642l111.067,0.488
					c0.073,0,0.148-0.001,0.223-0.001c10.762-0.056,19.634-7.685,19.827-17.097c0.862-42.489,1.173-82.301-4.419-102.56
					c-2.508-9.073-12.134-15.557-22.841-15.33c-20.26,0.359-56.63,3.647-85.853,6.289
					C1313.233,2341.675,1300.026,2342.868,1290.603,2343.562L1290.603,2343.562z"/>
				<path style="opacity:0.6;fill:#FFFFFF;" d="M1302.601,2353.118c23.323-1.716,74.007-7.128,98.056-7.553
					c10.19-0.18,19.16,5.93,21.596,14.755c4.731,17.139,4.294,51.352,3.653,82.931c-0.192,9.458-8.838,17.051-19.443,17.004
					l-88.758-0.391c-10.915-0.048-20.015-7.442-21.081-17.13l-8.19-74.426C1287.586,2360.609,1293.956,2353.753,1302.601,2353.118z"
					/>
				<g style="opacity:0.6;">
					<path style="fill:#FFFFFF;" d="M1517.771,2415.255c3.279,12.176,14.399,20.576,27.007,20.403l1027.555-14.109
						c11.624-0.159,20.874-9.794,20.559-21.416c-0.306-11.298-9.557-20.296-20.859-20.288l-1027.652,0.66
						C1526.241,2380.517,1513.053,2397.739,1517.771,2415.255z"/>
				</g>
				<path style="fill:#FFFFFF;" d="M1421.782,2765.949c-0.1,0-0.202,0.001-0.304,0.001l-111.068-0.488
					c-15.868-0.067-29.024-10.914-30.601-25.23l-10.247-93.135c-0.601-5.469,1.07-10.887,4.705-15.257
					c4.068-4.889,10.244-7.978,16.948-8.475l0,0c9.353-0.686,22.525-1.879,36.469-3.138c29.361-2.656,65.904-5.956,86.472-6.322
					c0.15-0.001,0.3-0.006,0.448-0.007c14.606-0.076,27.217,8.753,30.766,21.598c5.897,21.361,5.6,61.856,4.723,104.998
					C1449.808,2754.51,1437.137,2765.869,1421.782,2765.949z M1291.842,2631.874c-4.408,0.323-8.424,2.301-11.019,5.421
					c-2.142,2.572-3.129,5.721-2.783,8.868l10.247,93.135c1.101,10.005,10.629,17.589,22.16,17.637l111.07,0.488
					c0.073,0,0.148-0.001,0.223-0.001c10.763-0.056,19.634-7.686,19.827-17.097c0.862-42.488,1.173-82.301-4.419-102.56
					c-2.508-9.073-12.135-15.59-22.841-15.331c-20.26,0.359-56.63,3.647-85.853,6.289
					C1314.471,2629.986,1301.264,2631.179,1291.842,2631.874L1291.842,2631.874z"/>
				<path style="opacity:0.6;fill:#FFFFFF;" d="M1303.84,2641.43c23.323-1.717,74.006-7.129,98.055-7.553
					c10.19-0.18,19.16,5.93,21.596,14.755c4.731,17.138,4.294,51.352,3.653,82.93c-0.192,9.458-8.838,17.051-19.443,17.004
					l-88.758-0.39c-10.915-0.048-20.015-7.443-21.081-17.13l-8.19-74.426C1288.825,2648.92,1295.194,2642.066,1303.84,2641.43z"/>
				<g style="opacity:0.6;">
					<path style="fill:#FFFFFF;" d="M1519.009,2703.566c3.279,12.176,14.399,20.577,27.007,20.403l1027.555-14.109
						c11.625-0.159,20.874-9.794,20.559-21.415c-0.306-11.298-9.557-20.296-20.859-20.289l-1027.652,0.66
						C1527.48,2668.829,1514.292,2686.051,1519.009,2703.566z"/>
				</g>
				<path style="fill:#FFFFFF;" d="M1430.755,3054.261c-0.1,0-0.202,0.001-0.304,0.002l-111.068-0.488
					c-15.868-0.068-29.024-10.913-30.601-25.23l-10.247-93.135c-0.602-5.469,1.07-10.887,4.705-15.258
					c4.068-4.889,10.244-7.978,16.948-8.475l0,0c9.353-0.686,22.525-1.879,36.469-3.138c29.361-2.656,65.904-5.956,86.472-6.322
					c0.15-0.001,0.3-0.006,0.448-0.007c14.606-0.076,27.217,8.753,30.766,21.598c5.898,21.361,5.6,61.856,4.723,104.998
					C1458.781,3042.821,1446.11,3054.181,1430.755,3054.261z M1300.815,2920.185c-4.408,0.323-8.425,2.301-11.019,5.421
					c-2.142,2.572-3.129,5.721-2.783,8.868l10.247,93.134c1.101,10.005,10.629,17.589,22.16,17.637l111.07,0.488
					c0.073,0,0.148-0.001,0.223-0.001c10.763-0.056,19.634-7.685,19.827-17.098c0.862-42.488,1.173-82.3-4.419-102.559
					c-2.508-9.074-12.135-15.62-22.841-15.331c-20.259,0.36-56.63,3.647-85.853,6.289
					C1323.445,2918.298,1310.238,2919.49,1300.815,2920.185L1300.815,2920.185z"/>
				<path style="opacity:0.6;fill:#FFFFFF;" d="M1312.813,2929.741c23.323-1.716,74.006-7.129,98.056-7.553
					c10.19-0.18,19.16,5.93,21.596,14.755c4.731,17.139,4.294,51.352,3.653,82.931c-0.192,9.458-8.838,17.051-19.443,17.004
					l-88.758-0.39c-10.915-0.048-20.015-7.443-21.081-17.13l-8.19-74.426C1297.798,2937.232,1304.168,2930.378,1312.813,2929.741z"
					/>
				<g style="opacity:0.6;">
					<path style="fill:#FFFFFF;" d="M1527.983,2991.878L1527.983,2991.878c3.279,12.176,14.399,20.576,27.007,20.403
						l1027.555-14.108c11.624-0.16,20.874-9.794,20.559-21.416c-0.306-11.298-9.557-20.296-20.859-20.289l-1027.652,0.66
						C1536.453,2957.141,1523.265,2974.362,1527.983,2991.878z"/>
				</g>
				
					<linearGradient id="SVGID_00000006676201286059812220000018403869394235538322_" gradientUnits="userSpaceOnUse" x1="1870.0735" y1="53.9595" x2="1702.0488" y2="639.4991" gradientTransform="matrix(1 -0.0052 0.0052 1 378.2248 -224.4017)">
					<stop  offset="0" style="stop-color:#FF928E"/>
					<stop  offset="1" style="stop-color:#FE7062"/>
				</linearGradient>
				<path style="fill:url(#SVGID_00000006676201286059812220000018403869394235538322_);" d="M1317.617,2944.33L1317.617,2944.33
					c8.22-4.881,18.846-2.049,23.547,6.275l22.111,39.155c2.213,3.919,7.948,3.641,9.771-0.475l53.704-121.246
					c2.679-6.048,11.676-4.055,11.611,2.559c-0.362,37.004-9.813,107.386-68.627,166.566c0,0-32.645-12.494-59.182-69.971
					C1306.719,2958.89,1309.755,2948.999,1317.617,2944.33z"/>
				
					<linearGradient id="SVGID_00000068638581829700670820000013197884352881674398_" gradientUnits="userSpaceOnUse" x1="1779.9452" y1="28.1096" x2="1611.9204" y2="613.6494" gradientTransform="matrix(1 -0.0052 0.0052 1 378.2248 -224.4017)">
					<stop  offset="0" style="stop-color:#FF928E"/>
					<stop  offset="1" style="stop-color:#FE7062"/>
				</linearGradient>
				<path style="fill:url(#SVGID_00000068638581829700670820000013197884352881674398_);" d="M1303.993,2646.54L1303.993,2646.54
					c8.22-4.881,18.846-2.049,23.547,6.275l22.111,39.155c2.213,3.919,7.948,3.641,9.771-0.475l53.704-121.246
					c2.679-6.049,11.676-4.055,11.611,2.559c-0.362,37.003-9.813,107.386-68.627,166.565c0,0-32.645-12.494-59.182-69.971
					C1293.095,2661.1,1296.131,2651.209,1303.993,2646.54z"/>
				
					<linearGradient id="SVGID_00000093888847493227013770000015960173053009155992_" gradientUnits="userSpaceOnUse" x1="1705.028" y1="6.598" x2="1537.0033" y2="592.1378" gradientTransform="matrix(1 -0.0052 0.0052 1 378.2248 -224.4017)">
					<stop  offset="0" style="stop-color:#FF928E"/>
					<stop  offset="1" style="stop-color:#FE7062"/>
				</linearGradient>
				<path style="fill:url(#SVGID_00000093888847493227013770000015960173053009155992_);" d="M1303.993,2358.731L1303.993,2358.731
					c8.22-4.881,18.846-2.049,23.547,6.275l22.111,39.155c2.213,3.919,7.948,3.641,9.771-0.475l53.704-121.246
					c2.679-6.048,11.676-4.055,11.611,2.559c-0.362,37.003-9.813,107.386-68.627,166.565c0,0-32.645-12.494-59.182-69.971
					C1293.095,2373.291,1296.131,2363.4,1303.993,2358.731z"/>
				
					<linearGradient id="SVGID_00000073703227968926764580000006680175270909963152_" gradientUnits="userSpaceOnUse" x1="1639.0917" y1="-12.3056" x2="1471.067" y2="573.2342" gradientTransform="matrix(1 -0.0052 0.0052 1 378.2248 -224.4017)">
					<stop  offset="0" style="stop-color:#FF928E"/>
					<stop  offset="1" style="stop-color:#FE7062"/>
				</linearGradient>
				<path style="fill:url(#SVGID_00000073703227968926764580000006680175270909963152_);" d="M1419.016,2008.229
					c2.679-6.048,11.676-4.055,11.611,2.559c-0.362,37.004-9.813,107.386-68.627,166.566c0,0-32.645-12.494-59.182-69.971
					c-3.833-8.302-0.797-18.194,7.065-22.863l0,0c8.22-4.881,18.846-2.049,23.547,6.275l22.111,39.155
					c2.213,3.919,7.948,3.641,9.771-0.475L1419.016,2008.229z"/>
			</g>
			<g>
				<path style="fill:#FFFFFF;" d="M1397.153,1345.814c-0.1,0-0.202,0.001-0.304,0.002l-111.068-0.488
					c-15.868-0.072-29.024-10.922-30.601-25.234l-10.247-93.135c-0.601-5.468,1.07-10.882,4.703-15.253
					c4.068-4.89,10.246-7.978,16.95-8.475l0,0c9.353-0.686,22.525-1.879,36.469-3.138c29.361-2.655,65.904-5.956,86.472-6.322
					c0.15-0.001,0.3-0.006,0.448-0.006c14.606-0.076,27.218,8.753,30.766,21.598c5.897,21.361,5.6,61.856,4.723,104.998
					C1425.18,1334.375,1412.509,1345.734,1397.153,1345.814z M1267.213,1211.739c-4.408,0.323-8.425,2.301-11.019,5.421
					c-2.142,2.572-3.129,5.721-2.783,8.864l10.247,93.134c1.101,10.005,10.629,17.589,22.163,17.641l111.068,0.488
					c0.073,0,0.148-0.001,0.223-0.001c10.763-0.056,19.634-7.685,19.827-17.097c0.862-42.489,1.173-82.301-4.419-102.56
					c-2.508-9.073-12.134-15.557-22.841-15.33c-20.26,0.359-56.63,3.647-85.853,6.289
					C1289.843,1209.851,1276.636,1211.045,1267.213,1211.739L1267.213,1211.739z"/>
				<path style="opacity:0.6;fill:#FFFFFF;" d="M1279.211,1221.294c23.323-1.716,74.006-7.129,98.056-7.554
					c10.19-0.18,19.16,5.93,21.596,14.755c4.731,17.139,4.294,51.352,3.653,82.931c-0.192,9.458-8.838,17.051-19.443,17.004
					l-88.758-0.391c-10.915-0.048-20.015-7.442-21.082-17.13l-8.19-74.426C1264.196,1228.785,1270.566,1221.93,1279.211,1221.294z"
					/>
				<g style="opacity:0.6;">
					<path style="fill:#FFFFFF;" d="M1494.381,1283.431c3.279,12.176,14.399,20.576,27.007,20.403l1027.555-14.109
						c11.624-0.159,20.874-9.794,20.559-21.415c-0.306-11.298-9.557-20.296-20.859-20.288l-1027.652,0.66
						C1502.851,1248.694,1489.663,1265.915,1494.381,1283.431z"/>
				</g>
				<g style="opacity:0.6;">
					<path style="fill:#FFFFFF;" d="M1344.256,1035.368c2.988,18.597,13.905,31.607,26.515,31.599l1027.701-0.735
						c11.626-0.008,21.104-14.486,21.067-32.179c-0.036-17.202-9.071-31.083-20.371-31.3l-1027.477-19.736
						C1353.554,982.668,1339.957,1008.613,1344.256,1035.368z"/>
				</g>
				<path style="fill:#FFFFFF;" d="M1398.392,1634.126c-0.1,0-0.202,0.001-0.304,0.002l-111.068-0.488
					c-15.868-0.068-29.023-10.914-30.601-25.231l-10.247-93.134c-0.602-5.469,1.07-10.887,4.705-15.257
					c4.068-4.889,10.244-7.978,16.948-8.475l0,0c9.353-0.686,22.525-1.879,36.469-3.138c29.361-2.656,65.904-5.956,86.472-6.322
					c0.15-0.001,0.3-0.006,0.447-0.007c14.606-0.076,27.218,8.753,30.766,21.598c5.897,21.361,5.6,61.856,4.723,104.999
					C1426.418,1622.686,1413.747,1634.046,1398.392,1634.126z M1268.452,1500.051c-4.408,0.323-8.425,2.301-11.019,5.421
					c-2.142,2.572-3.129,5.721-2.783,8.868l10.247,93.134c1.101,10.005,10.63,17.589,22.16,17.637l111.07,0.488
					c0.073,0,0.148-0.001,0.223-0.001c10.763-0.056,19.634-7.686,19.827-17.098c0.862-42.488,1.173-82.301-4.419-102.559
					c-2.508-9.074-12.135-15.59-22.841-15.331c-20.26,0.36-56.63,3.647-85.853,6.289
					C1291.082,1498.163,1277.875,1499.356,1268.452,1500.051L1268.452,1500.051z"/>
				<path style="opacity:0.6;fill:#FFFFFF;" d="M1280.45,1509.606c23.323-1.716,74.006-7.129,98.056-7.553
					c10.19-0.18,19.16,5.93,21.596,14.755c4.731,17.139,4.294,51.352,3.653,82.931c-0.192,9.458-8.838,17.051-19.443,17.004
					l-88.758-0.39c-10.915-0.048-20.015-7.443-21.081-17.13l-8.19-74.426C1265.435,1517.097,1271.804,1510.243,1280.45,1509.606z"/>
				<g style="opacity:0.6;">
					<path style="fill:#FFFFFF;" d="M1495.619,1571.743c3.279,12.176,14.399,20.577,27.007,20.403l1027.555-14.109
						c11.624-0.16,20.874-9.794,20.559-21.416c-0.306-11.298-9.557-20.296-20.859-20.288l-1027.652,0.66
						C1504.09,1537.006,1490.902,1554.227,1495.619,1571.743z"/>
				</g>
				<path style="fill:#FFFFFF;" d="M1407.365,1922.437c-0.1,0-0.202,0.001-0.304,0.002l-111.068-0.488
					c-15.868-0.068-29.023-10.913-30.601-25.23l-10.247-93.135c-0.601-5.468,1.07-10.886,4.705-15.257
					c4.068-4.889,10.244-7.978,16.948-8.475l0,0c9.353-0.685,22.525-1.879,36.468-3.138c29.361-2.656,65.904-5.956,86.472-6.322
					c0.15-0.001,0.3-0.006,0.448-0.006c14.606-0.076,27.217,8.753,30.766,21.598c5.897,21.361,5.6,61.856,4.723,104.998
					C1435.392,1910.998,1422.721,1922.358,1407.365,1922.437z M1277.425,1788.362c-4.408,0.323-8.425,2.301-11.019,5.421
					c-2.142,2.572-3.129,5.721-2.783,8.868l10.247,93.134c1.101,10.005,10.629,17.589,22.16,17.637l111.07,0.488
					c0.073,0,0.148-0.001,0.223-0.001c10.763-0.056,19.634-7.685,19.827-17.098c0.862-42.488,1.173-82.3-4.419-102.559
					c-2.508-9.074-12.135-15.62-22.841-15.331c-20.26,0.359-56.63,3.647-85.853,6.289
					C1300.055,1786.474,1286.848,1787.667,1277.425,1788.362L1277.425,1788.362z"/>
				<path style="opacity:0.6;fill:#FFFFFF;" d="M1289.423,1797.918c23.323-1.716,74.006-7.128,98.056-7.553
					c10.19-0.18,19.16,5.93,21.596,14.755c4.731,17.139,4.294,51.352,3.653,82.931c-0.192,9.458-8.838,17.051-19.443,17.004
					l-88.758-0.39c-10.915-0.048-20.015-7.443-21.081-17.13l-8.19-74.426C1274.408,1805.409,1280.778,1798.554,1289.423,1797.918z"
					/>
				<g style="opacity:0.6;">
					<path style="fill:#FFFFFF;" d="M1504.593,1860.055L1504.593,1860.055c3.279,12.176,14.399,20.577,27.007,20.403
						l1027.555-14.108c11.624-0.16,20.874-9.794,20.559-21.416c-0.306-11.298-9.557-20.296-20.859-20.288l-1027.652,0.66
						C1513.063,1825.318,1499.875,1842.539,1504.593,1860.055z"/>
				</g>
			</g>
		</g>
		
			<linearGradient id="SVGID_00000149356291445146913170000004806589400960030378_" gradientUnits="userSpaceOnUse" x1="4309.1982" y1="-1967.4906" x2="3962.9092" y2="-948.9913">
			<stop  offset="0" style="stop-color:#4F52FF"/>
			<stop  offset="1" style="stop-color:#4042E2"/>
		</linearGradient>
		<path style="fill:url(#SVGID_00000149356291445146913170000004806589400960030378_);" d="M2982.612,2269.035
			c1.599,4.374,65.512-122.083,65.512-122.083l-143.094-91.124l68.694-167.207l-169.053-97.253l214.092,94.355l-62.791,148.963
			c0,0,183.274,110.571,180.841,112.22C3134.379,2148.556,2982.612,2269.035,2982.612,2269.035z"/>
		
			<linearGradient id="SVGID_00000049209055239736250680000009832197705436527241_" gradientUnits="userSpaceOnUse" x1="775.1661" y1="-4879.4443" x2="428.8852" y2="-3860.9692" gradientTransform="matrix(-0.3426 0.9395 -0.9395 -0.3426 -1362.7606 -1820.6837)">
			<stop  offset="0" style="stop-color:#4F52FF"/>
			<stop  offset="1" style="stop-color:#4042E2"/>
		</linearGradient>
		<path style="fill:url(#SVGID_00000049209055239736250680000009832197705436527241_);" d="M3217.063,455
			c-5.873,3.962-124.127,211.486-124.127,211.486l-120.762-110.085c0,0-197.696,224.995-194.76,213.282
			s173.448-289.379,173.448-289.379l140.352,150.421L3217.063,455z"/>
		
			<linearGradient id="SVGID_00000167365633134942927470000002433839389648211367_" gradientUnits="userSpaceOnUse" x1="2560.7942" y1="-1073.6726" x2="2214.511" y2="-55.1904" gradientTransform="matrix(0.884 0.4675 -0.4675 0.884 128.5519 -668.0063)">
			<stop  offset="0" style="stop-color:#4F52FF"/>
			<stop  offset="1" style="stop-color:#4042E2"/>
		</linearGradient>
		<path style="fill:url(#SVGID_00000167365633134942927470000002433839389648211367_);" d="M1579.263,456.982
			c3.177,6.467,195.873,154.403,195.873,154.403l-127.67,106.408c0,0,199.279,230.403,187.885,225.82
			c-11.395-4.583-267.515-214.901-267.515-214.901l171.029-120.552L1579.263,456.982z"/>
		
			<linearGradient id="SVGID_00000150098727154049472760000003625763715253480100_" gradientUnits="userSpaceOnUse" x1="11443.1787" y1="-37551.3867" x2="11096.8809" y2="-36532.8633" gradientTransform="matrix(-0.8931 -0.4498 0.4498 -0.8931 -2706.4287 3792.5366)">
			<stop  offset="0" style="stop-color:#4F52FF"/>
			<stop  offset="1" style="stop-color:#4042E2"/>
		</linearGradient>
		<path style="fill:url(#SVGID_00000150098727154049472760000003625763715253480100_);" d="M1211.589,1604.209
			c12.964,7.319,236.35-13.717,236.35-13.717l-26.294-155.947c0,0,267.308-34.887,265.425-31.148s-325.963-18.559-325.963-18.559
			l42.169,167.344L1211.589,1604.209z"/>
		<g>
			<g>
				<g>
					
						<linearGradient id="SVGID_00000085933292323311430990000016270213272092701825_" gradientUnits="userSpaceOnUse" x1="-2432.1851" y1="3248.3538" x2="-2294.7761" y2="3248.3538" gradientTransform="matrix(-1 0 0 1 331.0112 0)">
						<stop  offset="0" style="stop-color:#4F52FF"/>
						<stop  offset="1" style="stop-color:#4042E2"/>
					</linearGradient>
					<path style="fill:url(#SVGID_00000085933292323311430990000016270213272092701825_);" d="M2629.667,3241.708
						c23.54,2.035,64.394,5.34,96.602,6.758c19.361,0.852,30.507-1.044,36.927-3.614c-0.011,0.724-0.031,1.407-0.06,2.043
						c-0.152,3.389-2.906,6.1-6.329,6.292c-60.858,3.397-109.259,1.175-126.49,0.127c-3.563-0.218-5.686-4.089-3.864-7.126
						C2627.365,3244.667,2628.469,3243.179,2629.667,3241.708z"/>
					
						<linearGradient id="SVGID_00000133504874947463679890000011804859133580020653_" gradientUnits="userSpaceOnUse" x1="-2432.1929" y1="3221.4233" x2="-2298.6565" y2="3221.4233" gradientTransform="matrix(-1 0 0 1 331.0112 0)">
						<stop  offset="0" style="stop-color:#09005D"/>
						<stop  offset="1" style="stop-color:#1A0F91"/>
					</linearGradient>
					<path style="fill:url(#SVGID_00000133504874947463679890000011804859133580020653_);" d="M2726.27,3248.465
						c-32.208-1.417-73.063-4.723-96.602-6.758c23.144-28.395,96.602-47.533,96.602-47.533h20.747
						c14.27,20.57,16.336,40.153,16.18,50.677C2756.777,3247.421,2745.631,3249.317,2726.27,3248.465z"/>
					
						<linearGradient id="SVGID_00000106841646936127964220000012375482204099805059_" gradientUnits="userSpaceOnUse" x1="-2419.4988" y1="3183.8247" x2="-2380.7937" y2="3183.8247" gradientTransform="matrix(-1 0 0 1 331.0112 0)">
						<stop  offset="0" style="stop-color:#FEBBBA"/>
						<stop  offset="1" style="stop-color:#FF928E"/>
					</linearGradient>
					<path style="fill:url(#SVGID_00000106841646936127964220000012375482204099805059_);" d="M2750.51,3160.304l-1.941,38.42
						c-0.21,4.161-3.324,7.657-7.491,8.252c-4.146,0.593-9.698,0.668-15.585-1.291c-3.622-1.206-6.311-4.257-6.979-7.98
						l-6.708-37.401H2750.51z"/>
				</g>
				<g>
					<g>
						
							<linearGradient id="SVGID_00000111879977726160854690000009199244984469185724_" gradientUnits="userSpaceOnUse" x1="-2706.1216" y1="3245.3904" x2="-2653.4641" y2="3245.3904" gradientTransform="matrix(-1 0 0 1 331.0112 0)">
							<stop  offset="0" style="stop-color:#4F52FF"/>
							<stop  offset="1" style="stop-color:#4042E2"/>
						</linearGradient>
						<path style="fill:url(#SVGID_00000111879977726160854690000009199244984469185724_);" d="M3019.986,3248.177
							c10.208-1.424,14.827-6.727,16.764-12.396c0.013,0.051,0.026,0.102,0.039,0.153c1.502,5.98-1.98,12.178-8.941,15.126
							c-8.413,3.563-17.612,4.17-24.754,3.875c-7.662-0.316-14.695-3.486-18.56-8.561l-0.058-0.076
							C2992.166,3250.104,3002.962,3250.551,3019.986,3248.177z"/>
						
							<linearGradient id="SVGID_00000147190672342790498230000010204943388863816889_" gradientUnits="userSpaceOnUse" x1="-2705.7383" y1="3204.8457" x2="-2628.4478" y2="3204.8457" gradientTransform="matrix(-1 0 0 1 331.0112 0)">
							<stop  offset="0" style="stop-color:#09005D"/>
							<stop  offset="1" style="stop-color:#1A0F91"/>
						</linearGradient>
						<path style="fill:url(#SVGID_00000147190672342790498230000010204943388863816889_);" d="M2971.856,3160.058h17.11
							c26.062-0.532,42.427,54.436,47.784,75.723c-1.937,5.669-6.555,10.972-16.764,12.396c-17.024,2.374-27.82,1.927-35.51-1.879
							c-14.08-18.528-21.06-45.664-24.416-61.501C2956.243,3166.785,2971.856,3160.058,2971.856,3160.058z"/>
					</g>
					
						<linearGradient id="SVGID_00000158004541893756147260000004138988838083837097_" gradientUnits="userSpaceOnUse" x1="-2665.564" y1="3151.5586" x2="-2619.3069" y2="3151.5586" gradientTransform="matrix(-1 0 0 1 331.0112 0)">
						<stop  offset="0" style="stop-color:#FEBBBA"/>
						<stop  offset="1" style="stop-color:#FF928E"/>
					</linearGradient>
					<path style="fill:url(#SVGID_00000158004541893756147260000004138988838083837097_);" d="M2986.766,3124.398l9.501,37.788
						c1.165,4.633-1.052,9.426-5.336,11.624c-5.315,2.727-12.798,5.594-19.675,4.764c-3.234-0.39-5.921-2.668-6.99-5.713
						l-13.948-39.757L2986.766,3124.398z"/>
				</g>
				
					<linearGradient id="SVGID_00000041976832647672628470000011563254585082238855_" gradientUnits="userSpaceOnUse" x1="-2307.8958" y1="2725.365" x2="-2819.9299" y2="3471.584" gradientTransform="matrix(-1 0 0 1 331.0112 0)">
					<stop  offset="0" style="stop-color:#4F52FF"/>
					<stop  offset="1" style="stop-color:#4042E2"/>
				</linearGradient>
				<path style="fill:url(#SVGID_00000041976832647672628470000011563254585082238855_);" d="M2998.099,3135.32
					c-11.821,10.486-50.268,11.869-50.268,11.869c-138.494-332.4-195.148-379.622-195.148-379.622
					c19.997,125.463,3.224,403.222,3.224,403.222c-22.854,10.085-52.319,0-52.319,0c-1.856-205.4-33.427-384.528-70.723-525.748
					c93.606-2.104,143.384-34.135,159.638-46.991C2870.53,2723.845,2998.099,3135.32,2998.099,3135.32z"/>
				
					<linearGradient id="SVGID_00000035518622909361948510000006212997378980668605_" gradientUnits="userSpaceOnUse" x1="3094.0261" y1="1303.9227" x2="2951.4504" y2="1677.3345">
					<stop  offset="0" style="stop-color:#FF928E"/>
					<stop  offset="1" style="stop-color:#FE7062"/>
				</linearGradient>
				<path style="fill:url(#SVGID_00000035518622909361948510000006212997378980668605_);" d="M2768.731,2215.789
					c17.717,88.375,11.367,246.55,7.197,318.698c-1.172,20.279,12.984,48.391,24.426,67.569c1.795,3.008,0.687,6.86-2.429,8.461
					c-19.156,9.845-84.054,40.359-159.269,44.156c-5.016,0.253-9.493-3.163-10.792-8.013
					c-55.793-208.323-120.597-341.444-120.597-341.444C2578.812,2190.965,2768.731,2215.789,2768.731,2215.789z"/>
				
					<linearGradient id="SVGID_00000117678263210840470650000000382915607075764887_" gradientUnits="userSpaceOnUse" x1="-2509.6843" y1="2980.2549" x2="-2487.5193" y2="2935.925" gradientTransform="matrix(-1 0 0 1 331.0112 0)">
					<stop  offset="0" style="stop-color:#53D8FF"/>
					<stop  offset="1" style="stop-color:#3840F7"/>
				</linearGradient>
				<path style="fill:url(#SVGID_00000117678263210840470650000000382915607075764887_);" d="M2743.233,2759.698
					c0.786,0,1.583-0.212,2.304-0.65c2.09-1.278,2.753-4.002,1.482-6.09c-0.745-1.226-18.66-30.182-54.913-47.672
					c-2.202-1.057-4.855-0.143-5.923,2.066c-1.063,2.205-0.138,4.86,2.069,5.921c33.796,16.308,51.02,44.021,51.191,44.298
					C2740.279,2758.94,2741.738,2759.698,2743.233,2759.698z"/>
				<g>
					
						<linearGradient id="SVGID_00000082331832223805180040000004722954859480738690_" gradientUnits="userSpaceOnUse" x1="-2453.6406" y1="2477.3071" x2="-2618.3069" y2="2623.1226" gradientTransform="matrix(-1 0 0 1 331.0112 0)">
						<stop  offset="0" style="stop-color:#FEBBBA"/>
						<stop  offset="1" style="stop-color:#FF928E"/>
					</linearGradient>
					<path style="fill:url(#SVGID_00000082331832223805180040000004722954859480738690_);" d="M2879.864,2469.425
						c-5.691,41.169-22.506,86.075-56.142,133.775l-12.787-10.424c0,0,14.76-59.887,6.369-127.853
						C2838.054,2460.875,2862.559,2465.047,2879.864,2469.425z"/>
					
						<linearGradient id="SVGID_00000104681824393181694560000001207587010328432534_" gradientUnits="userSpaceOnUse" x1="3204.7458" y1="1346.1965" x2="3062.1699" y2="1719.6089">
						<stop  offset="0" style="stop-color:#FF928E"/>
						<stop  offset="1" style="stop-color:#FE7062"/>
					</linearGradient>
					<path style="fill:url(#SVGID_00000104681824393181694560000001207587010328432534_);" d="M2748.942,2324.833l19.79-109.044
						c0,0,132.221,101.068,111.132,253.635c-17.304-4.377-41.81-8.55-62.559-4.502
						C2811.26,2415.963,2793.204,2362.813,2748.942,2324.833z"/>
				</g>
				<g>
					
						<linearGradient id="SVGID_00000080888752021404304260000011650390731211644552_" gradientUnits="userSpaceOnUse" x1="2958.6025" y1="1252.2141" x2="2816.0271" y2="1625.6252">
						<stop  offset="0" style="stop-color:#FF928E"/>
						<stop  offset="1" style="stop-color:#FE7062"/>
					</linearGradient>
					<path style="fill:url(#SVGID_00000080888752021404304260000011650390731211644552_);" d="M2507.266,2305.216l51.037,109.916
						c-8.252,66.36-43.9,95.053-82.338,106.058c-2.396-30.243-10.044-54.677-17.14-71.579
						C2507.938,2398.905,2507.266,2305.216,2507.266,2305.216z"/>
					
						<linearGradient id="SVGID_00000108284232729040347420000000540666795331403685_" gradientUnits="userSpaceOnUse" x1="-2144.9546" y1="2491.0994" x2="-2015.2736" y2="2491.0994" gradientTransform="matrix(-1 0 0 1 331.0112 0)">
						<stop  offset="0" style="stop-color:#FEBBBA"/>
						<stop  offset="1" style="stop-color:#FF928E"/>
					</linearGradient>
					<path style="fill:url(#SVGID_00000108284232729040347420000000540666795331403685_);" d="M2458.826,2449.611
						c7.096,16.901,14.743,41.335,17.14,71.579c-102.55,39.788-129.681-37.376-129.681-37.376l18.953-3.344
						C2408.037,2484.98,2437.933,2471.182,2458.826,2449.611z"/>
				</g>
				
					<linearGradient id="SVGID_00000005962931626953847830000011902006276147357854_" gradientUnits="userSpaceOnUse" x1="-2271.0083" y1="2144.5439" x2="-2272.4246" y2="2386.7144" gradientTransform="matrix(-1 0 0 1 331.0112 0)">
					<stop  offset="0" style="stop-color:#FEBBBA"/>
					<stop  offset="1" style="stop-color:#FF928E"/>
				</linearGradient>
				<path style="fill:url(#SVGID_00000005962931626953847830000011902006276147357854_);" d="M2554.289,2169.517l24.639,90.576
					c2.768,10.175,13.774,15.64,23.565,11.725c10.566-4.224,23.972-9.99,35.513-16.221c12.319-6.651,16.173-22.497,8.375-34.124
					l-51.226-76.382L2554.289,2169.517z"/>
			</g>
			<g>
				
					<linearGradient id="SVGID_00000106853598701848773950000017900211420528824225_" gradientUnits="userSpaceOnUse" x1="-2544.5144" y1="3255.8418" x2="-2663.7214" y2="3413.5432" gradientTransform="matrix(-0.9897 -0.1428 -0.1428 0.9897 470.0659 -1480.9402)">
					<stop  offset="0" style="stop-color:#FEBBBA"/>
					<stop  offset="1" style="stop-color:#FF928E"/>
				</linearGradient>
				<path style="fill:url(#SVGID_00000106853598701848773950000017900211420528824225_);" d="M2500.384,2100.7
					c-0.225,1.555,20.551,103.362,20.551,103.362l57.878-13.098l-5.355-99.417C2573.457,2091.547,2504.141,2074.66,2500.384,2100.7z
					"/>
				
					<linearGradient id="SVGID_00000167361647693526666620000012866228398530897849_" gradientUnits="userSpaceOnUse" x1="-2635.5549" y1="3293.8833" x2="-2493.1602" y2="3293.8833" gradientTransform="matrix(-0.9897 -0.1428 -0.1428 0.9897 470.0659 -1480.9402)">
					<stop  offset="0" style="stop-color:#09005D"/>
					<stop  offset="1" style="stop-color:#1A0F91"/>
				</linearGradient>
				<path style="fill:url(#SVGID_00000167361647693526666620000012866228398530897849_);" d="M2560.44,2113.701l6.917,52.114
					c0.089,0.668,0.088,1.329-0.007,1.996c-0.584,4.085-3.623,17.992-17.662,14.015c-12.739-3.608-24.418-6.712-32.485-4.244
					c-3.622,1.108-5.808,4.777-5.05,8.488c1.89,9.25,6.534,30.013,13.322,47.437c1.377,3.536,5.25,5.393,8.892,4.331
					c10.977-3.2,33.94-10.597,51.018-20.875c2.314-1.393,3.693-3.91,3.579-6.608c-0.555-13.156-2.094-53.148-0.799-64.359
					c1.216-10.522,14.13-16.826,19.74-19.086c1.839-0.741,3.281-2.19,4.016-4.032c2.598-6.511,6.18-21.577-12.807-27.751
					c-3.974-1.292-6.068-5.577-4.656-9.509c2.812-7.829,3.998-19.777-10.691-26.359c-14.929-6.691-26.079,1.268-32.1,7.736
					c-2.434,2.615-6.34,3.014-9.361,1.105c-1.719-1.086-3.935-1.443-6.611,0.225c-3.606,2.247-8.382,0.715-10.243-3.104
					c-3.575-7.338-10.862-15.199-25.478-12.696c-25.936,4.442-28.873,33.182-22.031,50.024c6.842,16.842,34.687,10.427,48.656,1.937
					c10.621-6.456,24.398,0.311,30.392,3.925C2558.891,2109.553,2560.148,2111.503,2560.44,2113.701z"/>
				
					<linearGradient id="SVGID_00000052818556092432686790000007738079472211067023_" gradientUnits="userSpaceOnUse" x1="-2719.1064" y1="3380.7295" x2="-2623.4922" y2="3282.6318" gradientTransform="matrix(-0.9897 -0.1428 -0.1428 0.9897 470.0659 -1480.9402)">
					<stop  offset="0" style="stop-color:#FEBBBA"/>
					<stop  offset="1" style="stop-color:#FF928E"/>
				</linearGradient>
				<path style="fill:url(#SVGID_00000052818556092432686790000007738079472211067023_);" d="M2590.495,2164.996
					c0,0-10.662-29.858,0.292-37.17c10.954-7.312,27.179-3.516,23.607,18.114C2609.95,2172.844,2590.495,2164.996,2590.495,2164.996
					z"/>
			</g>
			
				<linearGradient id="SVGID_00000088096210124038892530000012150599367121112725_" gradientUnits="userSpaceOnUse" x1="-2029.0509" y1="2475.8691" x2="-1982.611" y2="2475.8691" gradientTransform="matrix(-1 0 0 1 331.0112 0)">
				<stop  offset="0" style="stop-color:#FEBBBA"/>
				<stop  offset="1" style="stop-color:#FF928E"/>
			</linearGradient>
			<path style="fill:url(#SVGID_00000088096210124038892530000012150599367121112725_);" d="M2353.887,2497.933
				c-5.162,4.032-22.846-4.387-33.668-10.207c-5.274-2.837-7.828-9.003-6.018-14.712c2.604-8.212,6.944-18.813,12.291-20.149
				C2335.362,2450.646,2375.158,2481.315,2353.887,2497.933z"/>
			<g>
				<g>
					
						<linearGradient id="SVGID_00000042728677853284127460000003944531332755705768_" gradientUnits="userSpaceOnUse" x1="-1511.5239" y1="2115.4468" x2="-3470.2603" y2="3544.3108" gradientTransform="matrix(-1 0 0 1 331.0112 0)">
						<stop  offset="0" style="stop-color:#09005D"/>
						<stop  offset="1" style="stop-color:#1A0F91"/>
					</linearGradient>
					<path style="fill:url(#SVGID_00000042728677853284127460000003944531332755705768_);" d="M3224.635,2747.344l-1350.423-480.282
						l-71.447,198.463l1349.956,493.698c28.672,10.486,60.672-1.143,76.035-27.525c15.781-27.099,30.861-69.441,31.771-132.862
						C3260.858,2775.778,3246.362,2755.072,3224.635,2747.344z"/>
					<g>
						
							<linearGradient id="SVGID_00000112594593874260083730000016045521842180714627_" gradientUnits="userSpaceOnUse" x1="-1442.8541" y1="2433.4385" x2="-1184.8516" y2="2209.1746" gradientTransform="matrix(-1 0 0 1 331.0112 0)">
							<stop  offset="0" style="stop-color:#09005D"/>
							<stop  offset="1" style="stop-color:#1A0F91"/>
						</linearGradient>
						<path style="fill:url(#SVGID_00000112594593874260083730000016045521842180714627_);" d="M1456.432,2215.768l186.539,22.903
							c-0.196,25.674-8.604,58.889-37.061,96.995l-155.783-102.764C1441.855,2227.445,1446.598,2214.56,1456.432,2215.768z"/>
						
							<linearGradient id="SVGID_00000068649211432107439270000012517201643686252962_" gradientUnits="userSpaceOnUse" x1="-1217.2813" y1="2104.2832" x2="-2172.5498" y2="3086.0144" gradientTransform="matrix(-1 0 0 1 331.0112 0)">
							<stop  offset="0" style="stop-color:#FEBBBA"/>
							<stop  offset="1" style="stop-color:#FF928E"/>
						</linearGradient>
						<path style="fill:url(#SVGID_00000068649211432107439270000012517201643686252962_);" d="M1874.212,2267.062
							c8.545,124.377-71.447,198.463-71.447,198.463l-196.856-129.86c28.457-38.105,36.865-71.321,37.061-96.995L1874.212,2267.062z
							"/>
					</g>
				</g>
				
					<linearGradient id="SVGID_00000092433411034871999880000003944773970057689000_" gradientUnits="userSpaceOnUse" x1="-1799.8235" y1="2132.9414" x2="-2661.9258" y2="3018.9253" gradientTransform="matrix(-1 0 0 1 331.0112 0)">
					<stop  offset="0" style="stop-color:#4F52FF"/>
					<stop  offset="1" style="stop-color:#4042E2"/>
				</linearGradient>
				<path style="fill:url(#SVGID_00000092433411034871999880000003944773970057689000_);" d="M3207.883,2808.203
					c1.636,0,3.167-1.016,3.741-2.647c0.732-2.066-0.353-4.334-2.419-5.062l-1291.994-456.601c-2.074-0.729-4.338,0.353-5.062,2.419
					c-0.733,2.066,0.353,4.334,2.419,5.063l1291.994,456.601C3206.999,2808.129,3207.445,2808.203,3207.883,2808.203z"/>
				
					<linearGradient id="SVGID_00000052800399107115619220000017618994807780026000_" gradientUnits="userSpaceOnUse" x1="-1777.5342" y1="2210.8003" x2="-2639.6384" y2="3096.7861" gradientTransform="matrix(-1 0 0 1 331.0112 0)">
					<stop  offset="0" style="stop-color:#4F52FF"/>
					<stop  offset="1" style="stop-color:#4042E2"/>
				</linearGradient>
				<path style="fill:url(#SVGID_00000052800399107115619220000017618994807780026000_);" d="M3185.594,2886.065
					c1.636,0,3.167-1.015,3.741-2.647c0.733-2.066-0.353-4.334-2.419-5.062l-1291.994-456.604c-2.074-0.729-4.334,0.349-5.062,2.419
					c-0.733,2.066,0.352,4.333,2.418,5.062l1291.994,456.604C3184.711,2885.991,3185.157,2886.065,3185.594,2886.065z"/>
			</g>
			
				<linearGradient id="SVGID_00000086686543240941972590000000140006974390577315_" gradientUnits="userSpaceOnUse" x1="-2388.6135" y1="2550.7402" x2="-2553.28" y2="2696.5559" gradientTransform="matrix(-1 0 0 1 331.0112 0)">
				<stop  offset="0" style="stop-color:#FEBBBA"/>
				<stop  offset="1" style="stop-color:#FF928E"/>
			</linearGradient>
			<path style="fill:url(#SVGID_00000086686543240941972590000000140006974390577315_);" d="M2816.208,2590.961l-59.686-4.865
				l-25.849,23.828c0,0,6.115,8.453,25.234,3.594c19.118-4.859,45.307-6.051,45.307-6.051s26.394,11.899,26.715-10.365
				L2816.208,2590.961z"/>
		</g>
		<g>
			<g>
				
					<linearGradient id="SVGID_00000020359225132171616380000016389654218988438434_" gradientUnits="userSpaceOnUse" x1="5378.6001" y1="-1384.6438" x2="4047.8921" y2="-203.3024">
					<stop  offset="0" style="stop-color:#09005D"/>
					<stop  offset="1" style="stop-color:#1A0F91"/>
				</linearGradient>
				<path style="fill:url(#SVGID_00000020359225132171616380000016389654218988438434_);" d="M1748.259,1273.406
					c0,338.294,284.613,612.536,635.7,612.536c351.087,0,651.424-286.225,651.424-624.52c0-338.294-300.337-600.553-651.424-600.553
					C2032.871,660.87,1748.259,935.112,1748.259,1273.406z"/>
				<g>
					<path style="fill:#BDD0FB;" d="M2985.471,1124.467c0.378,0,0.755-0.042,1.132-0.14c2.344-0.603,3.738-2.917,3.117-5.18
						c-6.842-24.75-15.578-49.304-25.974-72.971c-0.948-2.148-3.537-3.131-5.754-2.247c-2.233,0.917-3.274,3.394-2.332,5.551
						c10.237,23.297,18.84,47.469,25.571,71.848C2981.754,1123.22,2983.533,1124.467,2985.471,1124.467z"/>
					<path style="fill:#BDD0FB;" d="M2888.328,933.047c0.917,0,1.846-0.281,2.64-0.851c1.934-1.405,2.319-4.064,0.862-5.923
						c-117.78-150.495-307.497-240.336-507.495-240.336c-85.414,0-168.029,16.688-245.544,49.584
						c-2.217,0.942-3.223,3.446-2.246,5.577c0.973,2.139,3.568,3.106,5.788,2.173c76.391-32.433,157.815-48.874,242.002-48.874
						c197.259,0,384.351,88.585,500.482,236.965C2885.683,932.469,2886.995,933.047,2888.328,933.047z"/>
				</g>
				<path style="fill:#91B3FA;" d="M1834.747,1273.406c0,292.831,246.364,530.217,550.268,530.217s563.879-247.758,563.879-540.589
					c0-292.831-259.974-519.846-563.879-519.846S1834.747,980.575,1834.747,1273.406z"/>
				<path style="opacity:0.78;fill:#FFFFFF;" d="M2808.27,1245.906c1.361,22.507,21.397,39.691,44.757,38.38
					c23.357-1.311,41.19-20.617,39.831-43.124c-1.359-22.506-21.398-39.691-44.756-38.38
					C2824.744,1204.091,2806.911,1223.398,2808.27,1245.906z"/>
				<path style="opacity:0.78;fill:#FFFFFF;" d="M1893.006,1297.237c1.358,22.507,21.397,39.69,44.754,38.38
					c23.358-1.31,41.192-20.618,39.832-43.125c-1.359-22.506-21.397-39.69-44.755-38.379
					C1909.479,1255.422,1891.646,1274.729,1893.006,1297.237z"/>
				<path style="opacity:0.78;fill:#FFFFFF;" d="M2467.685,1663.557c-23.017,4.051-38.267,25.314-34.063,47.492
					s26.271,36.874,49.287,32.822c23.017-4.051,38.267-25.314,34.063-47.491C2512.768,1674.201,2490.702,1659.507,2467.685,1663.557
					z"/>
				<path style="opacity:0.78;fill:#FFFFFF;" d="M2302.954,794.528c-23.018,4.051-38.269,25.313-34.064,47.491
					c4.204,22.179,26.27,36.873,49.287,32.821c23.016-4.05,38.268-25.313,34.064-47.491
					C2348.038,805.171,2325.97,790.477,2302.954,794.528z"/>
				<path style="opacity:0.78;fill:#FFFFFF;" d="M2166.498,1686.889c-4.307,10.466-3.231,20.266,2.402,21.889
					c5.632,1.622,13.689-5.547,17.993-16.011c4.306-10.466,3.229-20.268-2.402-21.891
					C2178.858,1669.254,2170.801,1676.423,2166.498,1686.889z"/>
				<path style="opacity:0.78;fill:#FFFFFF;" d="M2534.708,862.615c-4.305,10.466-3.229,20.266,2.402,21.888
					c5.633,1.624,13.689-5.546,17.995-16.011c4.305-10.467,3.23-20.268-2.403-21.891
					C2547.069,844.98,2539.013,852.149,2534.708,862.615z"/>
				<path style="opacity:0.78;fill:#FFFFFF;" d="M1974.241,1530.196c-9.319,6.791-13.681,15.705-9.741,19.91
					c3.939,4.206,14.687,2.109,24.007-4.681c9.319-6.793,13.679-15.706,9.74-19.91
					C1994.308,1521.309,1983.56,1523.406,1974.241,1530.196z"/>
				<path style="opacity:0.78;fill:#FFFFFF;" d="M2733.095,1009.956c-9.318,6.791-13.68,15.705-9.741,19.909
					c3.938,4.207,14.687,2.109,24.006-4.681c9.32-6.791,13.681-15.705,9.741-19.91
					C2753.162,1001.069,2742.415,1003.166,2733.095,1009.956z"/>
				<path style="opacity:0.78;fill:#FFFFFF;" d="M1950.094,1063.481c-10.549-4.839-20.769-4.462-22.826,0.845
					c-2.059,5.306,4.825,13.531,15.374,18.371c10.55,4.84,20.77,4.462,22.827-0.845
					C1967.527,1076.547,1960.643,1068.321,1950.094,1063.481z"/>
				<path style="opacity:0.78;fill:#FFFFFF;" d="M2778.959,1472.684c-10.55-4.84-20.769-4.462-22.827,0.844
					c-2.059,5.307,4.825,13.532,15.375,18.371c10.548,4.841,20.769,4.461,22.826-0.844
					C2796.392,1485.75,2789.507,1477.524,2778.959,1472.684z"/>
				<path style="opacity:0.78;fill:#FFFFFF;" d="M2125.223,889.141c-6.407-9.415-15.346-14.205-19.964-10.699
					c-4.618,3.506-3.166,13.979,3.24,23.394c6.407,9.414,15.347,14.203,19.963,10.698
					C2133.082,909.029,2131.63,898.555,2125.223,889.141z"/>
				<path style="opacity:0.78;fill:#FFFFFF;" d="M2613.102,1653.544c-6.407-9.413-15.347-14.203-19.964-10.697
					c-4.617,3.504-3.167,13.977,3.241,23.392c6.406,9.415,15.346,14.205,19.964,10.699
					C2620.961,1673.432,2619.509,1662.959,2613.102,1653.544z"/>
				
					<linearGradient id="SVGID_00000066492778123454296290000011941875065125534594_" gradientUnits="userSpaceOnUse" x1="4464.5674" y1="947.0964" x2="4213.3364" y2="1334.1279" gradientTransform="matrix(-0.2954 -0.9553 -0.9553 0.2954 5624.7666 4512.6523)">
					<stop  offset="0" style="stop-color:#FF928E"/>
					<stop  offset="1" style="stop-color:#FE7062"/>
				</linearGradient>
				<path style="fill:url(#SVGID_00000066492778123454296290000011941875065125534594_);" d="M2386.68,1263.488l371.583,67.061
					c7.199,1.298,13.371-5.343,11.267-12.122l-12.525-40.335c-2.435-7.845,6.029-14.902,13.642-11.371l292.758,135.728
					c8.956,4.154,6.144,17.232-3.848,17.896l-322.846,21.506c-7.725,0.515-12.781-7.487-8.855-14.013l26.381-43.858
					c3.26-5.42,0.348-12.262-5.855-13.76l-366.172-88.339c-5.099-1.23-8.175-6.199-6.925-11.191l0,0
					C2376.522,1265.746,2381.558,1262.564,2386.68,1263.488z"/>
				<path style="fill:#FFFFFF;" d="M3026.261,1411.693c3.05-0.842,5.357-3.244,5.987-6.392c0.752-3.766-1.148-7.31-4.733-8.841
					l-63.32-27.012c-2.194-0.937-4.8,0.048-5.803,2.194c-1.012,2.147-0.048,4.642,2.152,5.585l63.321,27.012
					c-73.362,3.88-244.73,14.597-248.18,15.199c-2.339,0.373-4.016,2.609-3.636,4.921c0.381,2.278,2.571,3.799,4.918,3.442
					c5.061-0.592,136.369-8.878,247.447-15.803C3025.053,1411.958,3025.669,1411.857,3026.261,1411.693z"/>
				
					<linearGradient id="SVGID_00000153674560776826440290000003777778859165957508_" gradientUnits="userSpaceOnUse" x1="5931.8286" y1="439.6099" x2="5680.6255" y2="826.5991" gradientTransform="matrix(-0.0305 -0.9995 -0.9995 0.0305 4912.793 5520.5835)">
					<stop  offset="0" style="stop-color:#FF928E"/>
					<stop  offset="1" style="stop-color:#FE7062"/>
				</linearGradient>
				<path style="fill:url(#SVGID_00000153674560776826440290000003777778859165957508_);" d="M2366.652,1240.868l0.675-320.63
					c-0.112-7.099-8.046-11.512-14.481-8.055l-38.284,20.56c-7.447,4-16.257-2.495-14.198-10.468l79.179-306.557
					c2.422-9.377,16.198-9.536,18.85-0.215l85.7,301.143c2.05,7.206-5.034,13.721-12.41,11.408l-49.554-15.526
					c-6.126-1.92-12.461,2.313-12.745,8.514l-23.258,320.096c-0.232,5.096-4.645,9.08-9.938,8.973l0,0
					C2370.946,1250.003,2366.732,1245.92,2366.652,1240.868z"/>
				<path style="fill:#FFFFFF;" d="M2457.795,887.247c0.535,0,1.076-0.091,1.603-0.289c2.23-0.843,3.34-3.247,2.517-5.403
					c-1.595-4.642-35.984-127.231-64.997-230.958c-1.029-3.668-4.265-6.08-8.316-5.989c-3.953,0.098-7.168,2.667-8.004,6.393
					l-14.755,65.801c-0.51,2.28,0.995,4.536,3.365,5.023c2.345,0.504,4.698-0.95,5.217-3.238l14.756-65.801
					c18.458,68.651,63.248,228.629,64.529,231.777C2454.387,886.231,2456.042,887.247,2457.795,887.247z"/>
				
					<linearGradient id="SVGID_00000076572695726963191410000016574385175203632039_" gradientUnits="userSpaceOnUse" x1="-1274.4906" y1="3730.053" x2="-866.0331" y2="2666.656" gradientTransform="matrix(-1 0 0 1 2062.8765 0)">
					<stop  offset="0" style="stop-color:#09005D"/>
					<stop  offset="1" style="stop-color:#1A0F91"/>
				</linearGradient>
				
					<ellipse style="fill:url(#SVGID_00000076572695726963191410000016574385175203632039_);" cx="2387.858" cy="1258.058" rx="45.246" ry="43.598"/>
			</g>
		</g>
	</g>
</g>
</svg>
